<svg xmlns="http://www.w3.org/2000/svg" viewBox="0 0 337.5 241.36"><defs><style>.cls-1{fill:#150035;}.cls-2{fill:#fff;}.cls-3{fill:#39a1ff;}</style></defs><title>Asset 1</title><g id="Layer_2" data-name="Layer 2"><g id="Layer_1-2" data-name="Layer 1"><path class="cls-1" d="M53.7,80.56a11.77,11.77,0,0,0,4.5,3.9l126.5,73c6.8,3.9,17.2,4.4,23.1.9l55.4-32a7.18,7.18,0,0,0,4-5.4h0a20.24,20.24,0,0,0-.3-7.1l-3.7.2h0c-.5-.4-1-.7-1.6-1.1L135.1,40c-6.8-3.9-17.2-4.4-23.1-.9l-55.4,32-4.2-.2a11.63,11.63,0,0,0,1.2,9.2v.1a.6.6,0,0,0,.1.4Z"/><path class="cls-1" d="M197.7,161.36a27.43,27.43,0,0,1-13.4-3.3l-126.5-73A16,16,0,0,1,53.1,81l-.1-.1a.22.22,0,0,0-.2-.2,13.13,13.13,0,0,1-1.3-9.9l.2-.4,4.5.2,55.2-31.9c6.1-3.5,16.8-3.1,23.8.9l126.5,73c.5.3.9.6,1.5,1l4-.2.1.5a20,20,0,0,1,.3,7.4v.1c-.2,2.3-1.7,4.3-4.3,5.8l-55.4,32A22.3,22.3,0,0,1,197.7,161.36ZM54.2,80.16h0A12.48,12.48,0,0,0,58.5,84L185,157c6.6,3.8,16.7,4.3,22.5.9l55.4-32c2.2-1.3,3.5-3,3.7-4.9l.1-.4a16.05,16.05,0,0,0-.3-6.1l-2.7.1-.1.4-.7-.5c-.6-.4-1.1-.7-1.6-1l-126.5-73c-6.6-3.8-16.7-4.3-22.5-.9L56.8,71.66l-3.9-.2a11,11,0,0,0,1.2,8.2c0,.3,0,.4.1.5l-.5.4Z"/><path class="cls-2" d="M56.3,65.56l55.4-32c5.9-3.4,16.3-3,23.1.9l126.5,73c6.8,3.9,7.6,9.9,1.7,13.3l-55.4,32c-5.9,3.4-16.3,3-23.1-.9L58,78.86C51.1,75,50.3,69.06,56.3,65.56Z"/><path class="cls-1" d="M197.5,155.86a27.43,27.43,0,0,1-13.4-3.3l-126.5-73c-3.8-2.2-6-5.1-6-8.1,0-2.5,1.5-4.7,4.3-6.3l55.4-32c6.1-3.5,16.8-3.1,23.8.9l126.5,73c3.8,2.2,6,5.1,6,8.1,0,2.5-1.5,4.7-4.3,6.4l-55.4,32A22.77,22.77,0,0,1,197.5,155.86ZM121.7,32a19.85,19.85,0,0,0-9.7,2.2l-55.4,32c-2.4,1.4-3.7,3.2-3.7,5.2,0,2.5,2,5,5.3,7l126.4,73c6.6,3.8,16.7,4.3,22.5.9l55.4-32c2.4-1.4,3.7-3.2,3.7-5.2,0-2.5-2-5-5.3-7l-126.4-73A27.81,27.81,0,0,0,121.7,32Z"/><path class="cls-3" d="M112.2,38l-4.1,2.4c-1.3.8-1.3,2,0,2.8h0c1.3.8,1.3,2,0,2.8L77.3,63.76a5.1,5.1,0,0,1-4.8,0h0a5.1,5.1,0,0,0-4.8,0l-8.6,5c-3,1.7-3,4.5,0,6.3l128,73.6c5.5,3.1,14.5,3.1,19.9,0l53.2-30.8c3-1.7,3-4.5,0-6.3L132.2,38C126.6,34.76,117.7,34.76,112.2,38Z"/><path class="cls-1" d="M196.9,151.56a21.06,21.06,0,0,1-10.2-2.4l-128-73.6a4.54,4.54,0,0,1-2.6-3.7,4.55,4.55,0,0,1,2.5-3.7l8.6-5a5.94,5.94,0,0,1,5.5,0,4.46,4.46,0,0,0,4.2,0l30.8-17.8c.4-.3.7-.6.7-.8s-.3-.6-.7-.8a2.41,2.41,0,0,1-1.3-1.9,2.16,2.16,0,0,1,1.3-1.9l4.1-2.4c5.7-3.3,14.9-3.3,20.6,0l128,73.6a4.35,4.35,0,0,1,2.6,3.7,4.55,4.55,0,0,1-2.5,3.7l-53.2,30.8A24.46,24.46,0,0,1,196.9,151.56ZM70.1,63.76a4.65,4.65,0,0,0-2.1.5l-8.6,5a2.73,2.73,0,0,0,0,5.2l128,73.6c5.3,3.1,14,3,19.3,0l53.2-30.8a2.73,2.73,0,0,0,0-5.2l-128-73.6c-5.3-3.1-14-3-19.3,0l-4.1,2.4c-.4.3-.7.6-.7.8s.3.6.7.8a2.41,2.41,0,0,1,1.3,1.9,2.16,2.16,0,0,1-1.3,1.9l-30.8,18a5.94,5.94,0,0,1-5.5,0A5,5,0,0,0,70.1,63.76Z"/><path class="cls-1" d="M97.5,47c-.8-.4-.8-1.1,0-1.6a2.87,2.87,0,0,1,2.7,0c.7.4.8,1.1,0,1.6A2.62,2.62,0,0,1,97.5,47Z"/><path class="cls-1" d="M77.3,57.06l16-9.3a2.77,2.77,0,0,1,2.5.1h0c.8.4.8,1.1.2,1.5l-16,9.3a2.77,2.77,0,0,1-2.5-.1h0C76.8,58.06,76.7,57.46,77.3,57.06Z"/><rect class="cls-3" x="193.13" y="157.69" width="4.8" height="0.7" transform="matrix(0.01, -1, 1, 0.01, 35.47, 351.91)"/><path class="cls-3" d="M263.8,125.86l-.7-.2a8.74,8.74,0,0,0,0-4.9l.7-.2A8.34,8.34,0,0,1,263.8,125.86Z"/><path class="cls-3" d="M261.6,127.16l-.7-.2a8.74,8.74,0,0,0,0-4.9l.7-.2A8.34,8.34,0,0,1,261.6,127.16Z"/><path class="cls-3" d="M58.1,84.76a24.59,24.59,0,0,1-.4-5.3h.7a28.21,28.21,0,0,0,.3,5.1Z"/><path class="cls-3" d="M55.7,83.36a24.59,24.59,0,0,1-.4-5.3H56a28.21,28.21,0,0,0,.3,5.1Z"/><path class="cls-3" d="M94.7,104.46a2.35,2.35,0,0,1-.8-.2l-7.8-4.5a3,3,0,0,1-1.4-2.3v-.2a1.09,1.09,0,0,1,1.8-.9l7.8,4.5a3,3,0,0,1,1.4,2.3v.2a1.23,1.23,0,0,1-.5,1A.9.9,0,0,1,94.7,104.46Zm-9-7.5h-.1a.37.37,0,0,0-.1.3v.2a2,2,0,0,0,1.1,1.6l7.8,4.5c.3.2.5.2.6.1a.37.37,0,0,0,.1-.3v-.2a2,2,0,0,0-1.1-1.6l-7.8-4.5A1.34,1.34,0,0,0,85.7,97Z"/><path class="cls-3" d="M107.1,111.66a2.35,2.35,0,0,1-.8-.2L98.5,107a3,3,0,0,1-1.4-2.3v-.2a1.09,1.09,0,0,1,1.8-.9l7.8,4.5a3,3,0,0,1,1.4,2.3v.2a1.23,1.23,0,0,1-.5,1A4.33,4.33,0,0,1,107.1,111.66Zm-9-7.6H98a.37.37,0,0,0-.1.3v.2a2,2,0,0,0,1.1,1.6l7.8,4.5c.3.2.5.2.6.1a.37.37,0,0,0,.1-.3v-.2a2,2,0,0,0-1.1-1.6l-7.8-4.5A4.33,4.33,0,0,1,98.1,104.06Z"/><path class="cls-3" d="M229.8,144a1.1,1.1,0,0,1-.5-1v-.2a3,3,0,0,1,1.4-2.3l7.8-4.5a1.24,1.24,0,0,1,1.3-.1,1.1,1.1,0,0,1,.5,1v.2a3,3,0,0,1-1.4,2.3l-7.8,4.5a1.34,1.34,0,0,1-.8.2A1.09,1.09,0,0,1,229.8,144Zm9.1-7.3-7.8,4.5a2.17,2.17,0,0,0-1.1,1.6v.2c0,.1,0,.3.1.3s.3.1.6-.1l7.8-4.5a2.17,2.17,0,0,0,1.1-1.6v-.2c0-.1,0-.3-.1-.3h-.1A1.09,1.09,0,0,0,238.9,136.66Z"/><path class="cls-3" d="M80,96a2.35,2.35,0,0,1-.8-.2l-4.4-2.5A3,3,0,0,1,73.4,91v-.2a1.09,1.09,0,0,1,1.8-.9l4.4,2.5a3,3,0,0,1,1.4,2.3v.2a1.23,1.23,0,0,1-.5,1A.9.9,0,0,1,80,96Zm-5.6-5.6h-.1a.37.37,0,0,0-.1.3v.2a2,2,0,0,0,1.1,1.6L79.7,95c.3.2.5.2.6.1a.37.37,0,0,0,.1-.3v-.2A2,2,0,0,0,79.3,93l-4.4-2.5A2,2,0,0,1,74.4,90.36Z"/><path class="cls-3" d="M77.2,92.86v-.2c0-.7.6-.9,1.3-.5l1,.6a2.66,2.66,0,0,1,1.3,2V95c0,.7-.6.9-1.3.5l-1-.6A2.42,2.42,0,0,1,77.2,92.86Z"/><path class="cls-3" d="M80,96a2.35,2.35,0,0,1-.8-.2l-1-.6a3,3,0,0,1-1.4-2.3v-.2a1.09,1.09,0,0,1,1.8-.9l1,.6a3,3,0,0,1,1.4,2.3v.2a1.23,1.23,0,0,1-.5,1A.9.9,0,0,1,80,96Zm-2.5-3.1a2,2,0,0,0,1.1,1.6l1,.6c.3.2.5.2.6.1a.37.37,0,0,0,.1-.3v-.2a2,2,0,0,0-1.1-1.6l-1-.6c-.3-.2-.5-.2-.6-.1a.37.37,0,0,0-.1.3Z"/><rect class="cls-3" x="197.89" y="155.55" width="0.7" height="5" transform="translate(-2.01 2.55) rotate(-0.73)"/><rect class="cls-3" x="206.89" y="153.35" width="0.7" height="5" transform="translate(-1.98 2.67) rotate(-0.73)"/><rect class="cls-3" x="186.26" y="156.48" width="4.8" height="0.7" transform="matrix(0.01, -1, 1, 0.01, 29.88, 343.85)"/><rect class="cls-3" x="174.95" y="150.23" width="4.8" height="0.7" transform="matrix(0.01, -1, 1, 0.01, 24.93, 326.36)"/><rect class="cls-2" x="211.61" y="122.9" width="1" height="1.5" transform="translate(-1.04 245.5) rotate(-59.99)"/><path class="cls-2" d="M226.1,132.46l-2.3-1.3.5-.9,2.3,1.3Zm-4.6-2.7-2.3-1.3.5-.9,2.3,1.3Zm-4.5-2.6-2.3-1.3.5-.9,2.3,1.3Z"/><rect class="cls-2" x="228.85" y="132.94" width="1" height="1.5" transform="translate(-1.19 265.31) rotate(-59.96)"/><path class="cls-2" d="M229.9,113.46l-37.8,21.6-13.7-8,37.8-21.6Zm-37.8,20.7,36.1-20.7-12.1-7.1L180,127.06Z"/><path class="cls-2" d="M99.8,90.26a4.28,4.28,0,0,1-2.2-.6L80.8,80a1.94,1.94,0,0,1-1.1-1.6,1.56,1.56,0,0,1,.8-1.3l51.9-29.9a4.46,4.46,0,0,1,3.9.1L153.1,57a1.94,1.94,0,0,1,1.1,1.6,1.56,1.56,0,0,1-.8,1.3l-51.9,29.9A2.31,2.31,0,0,1,99.8,90.26Zm34.4-42.4a2.13,2.13,0,0,0-1.2.3L81.1,78.06c-.1.1-.4.2-.4.4s.2.4.6.7l16.8,9.7a3,3,0,0,0,2.9.1l51.9-29.9c.1-.1.4-.2.4-.4s-.2-.4-.6-.7l-16.8-9.7A3.29,3.29,0,0,0,134.2,47.86Z"/><path class="cls-2" d="M110.6,96.56a4.28,4.28,0,0,1-2.2-.6l-3.6-2.1a1.94,1.94,0,0,1-1.1-1.6,1.56,1.56,0,0,1,.8-1.3l51.9-29.9a4.46,4.46,0,0,1,3.9.1l3.6,2.1a1.94,1.94,0,0,1,1.1,1.6,1.56,1.56,0,0,1-.8,1.3l-51.9,29.9A2.86,2.86,0,0,1,110.6,96.56Zm47.5-34.9a2.13,2.13,0,0,0-1.2.3L105,91.86c-.1.1-.4.2-.4.4s.2.4.6.7l3.6,2.1a3,3,0,0,0,2.9.1l51.9-29.9c.1-.1.4-.2.4-.4s-.2-.4-.6-.7l-3.6-2.1A3.29,3.29,0,0,0,158.1,61.66Z"/><path class="cls-2" d="M145.1,116.46a4.28,4.28,0,0,1-2.2-.6l-3.6-2.1a1.94,1.94,0,0,1-1.1-1.6,1.56,1.56,0,0,1,.8-1.3L190.9,81a4.46,4.46,0,0,1,3.9.1l3.6,2.1a1.94,1.94,0,0,1,1.1,1.6,1.56,1.56,0,0,1-.8,1.3l-51.9,30A4.26,4.26,0,0,1,145.1,116.46Zm47.5-34.9a2.13,2.13,0,0,0-1.2.3l-51.9,29.9c-.1.1-.4.2-.4.4s.2.4.6.7l3.6,2.1a3,3,0,0,0,2.9.1l51.9-29.9c.1-.1.4-.2.4-.4s-.2-.4-.6-.7L194.3,82A3.29,3.29,0,0,0,192.6,81.56Z"/><path class="cls-2" d="M155.7,122.56a4.28,4.28,0,0,1-2.2-.6l-11.5-6.5a1.94,1.94,0,0,1-1.1-1.6,1.56,1.56,0,0,1,.8-1.3l51.9-29.9a4.46,4.46,0,0,1,3.9.1l11.5,6.5a1.94,1.94,0,0,1,1.1,1.6,1.56,1.56,0,0,1-.8,1.3l-51.9,29.9A2.31,2.31,0,0,1,155.7,122.56Zm39.7-39.3a2.13,2.13,0,0,0-1.2.3l-51.9,29.9c-.1.1-.4.2-.4.4s.2.4.6.7l11.5,6.5a3,3,0,0,0,2.9.1l51.9-29.9c.1-.1.3-.2.3-.4s-.2-.4-.6-.7L197,83.66A3.77,3.77,0,0,0,195.4,83.26Z"/><path class="cls-2" d="M134.2,110.16a4.28,4.28,0,0,1-2.2-.6l-16.1-9.3a1.94,1.94,0,0,1-1.1-1.6,1.56,1.56,0,0,1,.8-1.3L138,84.46a4.46,4.46,0,0,1,3.9.1l16.1,9.3a1.94,1.94,0,0,1,1.1,1.6,1.56,1.56,0,0,1-.8,1.3l-22.4,12.9A2.31,2.31,0,0,1,134.2,110.16Zm5.7-25a2.13,2.13,0,0,0-1.2.3l-22.4,12.9c-.1.1-.4.2-.4.4s.2.4.6.7l16.1,9.3a3,3,0,0,0,2.9.1L157.9,96c.1-.1.4-.2.4-.4s-.2-.4-.6-.7l-16.1-9.3A3.29,3.29,0,0,0,139.9,85.16Z"/><path class="cls-2" d="M163.7,93.16a4.28,4.28,0,0,1-2.2-.6l-16.1-9.3a1.94,1.94,0,0,1-1.1-1.6,1.56,1.56,0,0,1,.8-1.3l22.4-12.9a4.46,4.46,0,0,1,3.9.1l16.1,9.3a1.94,1.94,0,0,1,1.1,1.6,1.56,1.56,0,0,1-.8,1.3l-22.4,12.9A2.62,2.62,0,0,1,163.7,93.16Zm5.6-25a2.13,2.13,0,0,0-1.2.3l-22.4,12.9c-.1.1-.4.2-.4.4s.2.4.6.7l16.1,9.3a3,3,0,0,0,2.9.1L187.3,79c.1-.1.4-.2.4-.4s-.2-.4-.6-.7L171,68.56A3.29,3.29,0,0,0,169.3,68.16Z"/><path class="cls-2" d="M109.1,76.86l-1.5.9-4.2-2.4-.7-.4-.7-.4v.6l-.2.9-1.7-.1.5-2.4,1.3-.7Z"/><path class="cls-2" d="M111.7,71.16a4.34,4.34,0,0,1,2.2,2c.2.6-.1,1.1-1,1.6a4.77,4.77,0,0,1-2.9.6,8,8,0,0,1-3.5-1.3c-1.3-.8-2-1.4-2.2-2s.1-1.1,1-1.6a4.77,4.77,0,0,1,2.9-.6A11.66,11.66,0,0,1,111.7,71.16Zm-3.6,2.1a8,8,0,0,0,2.2,1,2.2,2.2,0,0,0,1.4-.1.49.49,0,0,0,.2-.8,7.66,7.66,0,0,0-1.7-1.3,12.9,12.9,0,0,0-2.2-1,2.2,2.2,0,0,0-1.4.1.49.49,0,0,0-.2.8A4.28,4.28,0,0,0,108.1,73.26Z"/><path class="cls-2" d="M117.5,67.76a4.34,4.34,0,0,1,2.2,2c.2.6-.1,1.1-1,1.6a4.77,4.77,0,0,1-2.9.6,8,8,0,0,1-3.5-1.3c-1.3-.8-2-1.4-2.2-2s.1-1.1,1-1.6a4.77,4.77,0,0,1,2.9-.6A10,10,0,0,1,117.5,67.76Zm-3.6,2.1a8,8,0,0,0,2.2,1,2.2,2.2,0,0,0,1.4-.1.49.49,0,0,0,.2-.8,7.66,7.66,0,0,0-1.7-1.3,12.9,12.9,0,0,0-2.2-1,2.2,2.2,0,0,0-1.4.1.49.49,0,0,0-.2.8A7.14,7.14,0,0,0,113.9,69.86Z"/><path class="cls-2" d="M123.4,64.46a4.34,4.34,0,0,1,2.2,2c.2.6-.1,1.1-1,1.6a4.77,4.77,0,0,1-2.9.6,8,8,0,0,1-3.5-1.3c-1.3-.8-2-1.4-2.2-2s.1-1.1,1-1.6a4.77,4.77,0,0,1,2.9-.6A7.56,7.56,0,0,1,123.4,64.46Zm-3.6,2a8,8,0,0,0,2.2,1,2.2,2.2,0,0,0,1.4-.1.49.49,0,0,0,.2-.8,7.66,7.66,0,0,0-1.7-1.3,12.9,12.9,0,0,0-2.2-1,2.2,2.2,0,0,0-1.4.1.49.49,0,0,0-.2.8A4.28,4.28,0,0,0,119.8,66.46Z"/><path class="cls-2" d="M132.4,60.76c.5.3.8.7.7,1.1a2.66,2.66,0,0,1-1,1.3l1,.6-.7.4-1-.6a8.25,8.25,0,0,1-2.6,1l-1.3-.8a10.26,10.26,0,0,0,1.4-.4,8.93,8.93,0,0,0,1.3-.5l-1.5-.9-.5.1a11.15,11.15,0,0,1-2.3.3,3.31,3.31,0,0,1-1.5-.4c-.5-.3-.7-.6-.6-1a2.14,2.14,0,0,1,1-1.2l-.8-.4.7-.4.8.4a10.64,10.64,0,0,1,2.5-.9l.7.9a11.76,11.76,0,0,0-2,.7l1.5.8a13.62,13.62,0,0,1,2-.4,2.4,2.4,0,0,1,1.2,0C131.8,60.56,132.1,60.66,132.4,60.76Zm-6.5.3a.75.75,0,0,0,.5.1,2.49,2.49,0,0,0,.8-.1l-1.2-.7C125.7,60.76,125.6,61,125.9,61.06Zm5.1.6a.75.75,0,0,0-.5-.1c-.2,0-.5.1-.8.1l1.3.7A.38.38,0,0,0,131,61.66Z"/><rect class="cls-2" x="117.01" y="93.87" width="29.6" height="1" transform="matrix(0.87, -0.5, 0.5, 0.87, -29.53, 78.62)"/><rect class="cls-2" x="146.53" y="76.67" width="29.6" height="1" transform="translate(-16.97 91.06) rotate(-30.02)"/><path class="cls-1" d="M233.8,124.66a1.38,1.38,0,0,1,0,2h0a6.62,6.62,0,0,1,3.5,0h0a1.36,1.36,0,0,1,0-2h0a6.48,6.48,0,0,1-3.5,0Z"/><path class="cls-1" d="M238.9,121.76a1.38,1.38,0,0,1,0,2h0a6.62,6.62,0,0,1,3.5,0h0c-.9-.8-.1-1.9,0-2h0a7.73,7.73,0,0,1-3.5,0Z"/><path class="cls-1" d="M244,118.76a1.38,1.38,0,0,1,0,2h0a6.62,6.62,0,0,1,3.5,0h0a1.36,1.36,0,0,1,0-2h0a6.48,6.48,0,0,1-3.5,0Z"/><path class="cls-1" d="M249.1,115.86a1.38,1.38,0,0,1,0,2h0a6.62,6.62,0,0,1,3.5,0h0a1.36,1.36,0,0,1,0-2h0a6.55,6.55,0,0,1-3.5,0Z"/><path class="cls-1" d="M254.2,113a1.38,1.38,0,0,1,0,2h0a6.62,6.62,0,0,1,3.5,0h0c-.9-.8-.1-1.9,0-2h0a7.82,7.82,0,0,1-3.5,0Z"/><path class="cls-1" d="M233.8,118.76a1.38,1.38,0,0,1,0,2h0a6.62,6.62,0,0,1,3.5,0h0c-.9-.8-.1-1.9,0-2h0a6.48,6.48,0,0,1-3.5,0Z"/><path class="cls-1" d="M238.9,115.86a1.38,1.38,0,0,1,0,2h0a6.62,6.62,0,0,1,3.5,0h0c-.9-.8-.1-1.9,0-2h0a6.55,6.55,0,0,1-3.5,0Z"/><path class="cls-1" d="M244,112.86a1.38,1.38,0,0,1,0,2h0a6.62,6.62,0,0,1,3.5,0h0a1.36,1.36,0,0,1,0-2h0a5.66,5.66,0,0,1-3.5,0Z"/><path class="cls-1" d="M249.1,110a1.38,1.38,0,0,1,0,2h0a6.62,6.62,0,0,1,3.5,0h0a1.36,1.36,0,0,1,0-2h0a6.62,6.62,0,0,1-3.5,0Z"/><path class="cls-3" d="M62.5,40.06l66.9,38.6c2.3,1.3,6.3,1.2,9-.4L178.7,55c2.7-1.5,3-3.9.6-5.2l-66.9-38.5c-2.3-1.3-6.3-1.2-9,.4L63.1,35C60.5,36.46,60.2,38.76,62.5,40.06Z"/><path class="cls-1" d="M133.3,80.16a7.92,7.92,0,0,1-4.2-1L62.2,40.56a3,3,0,0,1-1.8-2.8c0-1.3.9-2.5,2.5-3.4l40.3-23.3c2.9-1.7,7.1-1.8,9.6-.4l66.9,38.6a3.56,3.56,0,0,1,1.9,2.8c0,1.3-.9,2.5-2.5,3.4l-40.3,23.3A11,11,0,0,1,133.3,80.16ZM62.8,39.56l66.9,38.6c2.1,1.2,5.9,1.1,8.4-.4l40.3-23.3a3.23,3.23,0,0,0,1.9-2.4,2.42,2.42,0,0,0-1.3-1.8l-66.9-38.6c-2.1-1.2-5.9-1.1-8.4.4L63.4,35.36a3.23,3.23,0,0,0-1.9,2.4,2.12,2.12,0,0,0,1.3,1.8Z"/><path class="cls-3" d="M62.5,37.46l66.9,38.6c2.3,1.3,6.3,1.2,9-.4l40.3-23.3c2.7-1.5,3-3.9.6-5.2L112.4,8.56c-2.3-1.3-6.3-1.2-9,.4L63.1,32.26C60.5,33.86,60.2,36.16,62.5,37.46Z"/><path class="cls-1" d="M133.3,77.56a7.92,7.92,0,0,1-4.2-1L62.2,38a3,3,0,0,1-1.8-2.8c0-1.3.9-2.5,2.5-3.4l40.3-23.3c2.9-1.7,7.1-1.8,9.6-.4l66.9,38.6a3.56,3.56,0,0,1,1.9,2.8c0,1.3-.9,2.5-2.5,3.4l-40.4,23.4A11.33,11.33,0,0,1,133.3,77.56ZM62.8,37l66.9,38.6c2.1,1.2,5.9,1.1,8.4-.4l40.3-23.3a3.23,3.23,0,0,0,1.9-2.4,2.42,2.42,0,0,0-1.3-1.8L112.1,9.06c-2.1-1.2-5.9-1.1-8.4.4L63.4,32.76a3.23,3.23,0,0,0-1.9,2.4A2.12,2.12,0,0,0,62.8,37Z"/><path class="cls-3" d="M62.5,34.86l66.9,38.6c2.3,1.3,6.3,1.2,9-.4l40.3-23.3c2.7-1.5,3-3.9.6-5.2L112.4,6c-2.3-1.3-6.3-1.2-9,.4L63.1,29.66C60.5,31.26,60.2,33.56,62.5,34.86Z"/><path class="cls-1" d="M133.3,75a7.92,7.92,0,0,1-4.2-1L62.2,35.36a3.23,3.23,0,0,1-1.8-2.8c0-1.3.9-2.5,2.5-3.4l40.3-23.3c2.9-1.7,7.1-1.8,9.6-.4l66.9,38.6a3.35,3.35,0,0,1,1.9,2.8c0,1.3-.9,2.5-2.5,3.4l-40.3,23.3A11,11,0,0,1,133.3,75ZM62.8,34.36,129.7,73c2.1,1.2,5.9,1.1,8.4-.4l40.3-23.3a3.23,3.23,0,0,0,1.9-2.4,2.42,2.42,0,0,0-1.3-1.8L112.1,6.46c-2.1-1.2-5.9-1.1-8.4.4L63.4,30.16a3.23,3.23,0,0,0-1.9,2.4,2.12,2.12,0,0,0,1.3,1.8Z"/><path class="cls-1" d="M133.6,79.66a10.28,10.28,0,0,0,4.7-1.3l40.3-23.3c2.1-1.2,2.3-3.5,1.8-4.3a2.1,2.1,0,0,0,0-2.6c.8-1.3.5-2.7-1.1-3.6l-14-8.1H133.6v43.2Z"/><path class="cls-3" d="M62.5,32.26l66.9,38.6c2.3,1.3,6.3,1.2,9-.4l40.3-23.3c2.7-1.5,3-3.9.6-5.2L112.4,3.36c-2.3-1.3-6.3-1.2-9,.4L63.1,27.06C60.5,28.66,60.2,31,62.5,32.26Z"/><path class="cls-2" d="M110.3,7.86,69.9,31.16c-2.2,1.3-2.8,3-1.7,4.4l54.6,31.5a10.42,10.42,0,0,0,8.6-.5l40.4-23.3c2.3-1.3,2.8-3.3,1.4-4.6L119,7.36A9.93,9.93,0,0,0,110.3,7.86Z"/><path class="cls-1" d="M133.3,72.36a7.92,7.92,0,0,1-4.2-1L62.2,32.76A3,3,0,0,1,60.4,30c0-1.3.9-2.5,2.5-3.4l40.3-23.3c2.9-1.7,7.1-1.8,9.6-.4l66.9,38.6a3.56,3.56,0,0,1,1.9,2.8c0,1.3-.9,2.5-2.5,3.4l-40.3,23.2A10.16,10.16,0,0,1,133.3,72.36ZM62.8,31.76l66.9,38.6c2.1,1.2,5.9,1.1,8.4-.4l40.3-23.3a3.23,3.23,0,0,0,1.9-2.4,2.42,2.42,0,0,0-1.3-1.8L112.1,3.86c-2.1-1.2-5.9-1.1-8.4.4L63.4,27.56A3.23,3.23,0,0,0,61.5,30a2.12,2.12,0,0,0,1.3,1.8Z"/><rect class="cls-1" x="122.17" y="50.96" width="47" height="1.2" transform="translate(-6.25 79.84) rotate(-30.03)"/><rect class="cls-1" x="73.4" y="25.86" width="57.6" height="1.2" transform="translate(0.48 54.7) rotate(-30.03)"/><rect class="cls-1" x="73.18" y="22.66" width="47" height="1.2" transform="translate(1.34 51.51) rotate(-30.03)"/><path class="cls-3" d="M134.4,74.76l-.1-.9a9,9,0,0,0,3.8-1.2l40.3-23.3A4.48,4.48,0,0,0,180,48l.8.5a5.28,5.28,0,0,1-1.9,1.7l-40.3,23.3A9.44,9.44,0,0,1,134.4,74.76Z"/><path class="cls-3" d="M134.4,77.46l-.1-.9a9,9,0,0,0,3.8-1.2l40.3-23.3a4.48,4.48,0,0,0,1.6-1.4l.8.5a5.28,5.28,0,0,1-1.9,1.7l-40.3,23.3A10.91,10.91,0,0,1,134.4,77.46Z"/><ellipse class="cls-3" cx="106.5" cy="9.16" rx="2.3" ry="1.3"/><path class="cls-1" d="M106.5,11.06a4.55,4.55,0,0,1-2-.5,1.88,1.88,0,0,1-1-1.5,1.88,1.88,0,0,1,1-1.5h0a4.45,4.45,0,0,1,3.9,0,1.88,1.88,0,0,1,1,1.5,1.88,1.88,0,0,1-1,1.5A3,3,0,0,1,106.5,11.06Zm0-2.6a3.19,3.19,0,0,0-1.4.3h0c-.2.1-.4.3-.4.4s.1.3.4.4a3.19,3.19,0,0,0,2.7,0c.2-.1.4-.3.4-.4s-.1-.3-.4-.4A2.5,2.5,0,0,0,106.5,8.46Z"/><path class="cls-3" d="M98,12.16a1,1,0,0,0,0,1.9,3.82,3.82,0,0,0,3.3,0,1,1,0,0,0,0-1.9A3.82,3.82,0,0,0,98,12.16Z"/><path class="cls-1" d="M99.7,15.06a4.55,4.55,0,0,1-2-.5,1.88,1.88,0,0,1-1-1.5,1.88,1.88,0,0,1,1-1.5,4.45,4.45,0,0,1,3.9,0,1.88,1.88,0,0,1,1,1.5,1.88,1.88,0,0,1-1,1.5A4.14,4.14,0,0,1,99.7,15.06Zm0-2.7a3.19,3.19,0,0,0-1.4.3c-.2.1-.4.3-.4.4s.1.3.4.4a3.19,3.19,0,0,0,2.7,0c.2-.1.4-.3.4-.4s-.1-.3-.4-.4A2.5,2.5,0,0,0,99.7,12.36Z"/><path class="cls-3" d="M91.2,16.06a1,1,0,0,0,0,1.9,3.82,3.82,0,0,0,3.3,0,1,1,0,0,0,0-1.9A3.82,3.82,0,0,0,91.2,16.06Z"/><path class="cls-1" d="M92.8,19a4.55,4.55,0,0,1-2-.5,1.88,1.88,0,0,1-1-1.5,1.88,1.88,0,0,1,1-1.5h0a4.45,4.45,0,0,1,3.9,0,1.88,1.88,0,0,1,1,1.5,1.88,1.88,0,0,1-1,1.5A3,3,0,0,1,92.8,19Zm0-2.7a3.19,3.19,0,0,0-1.4.3h0c-.2.1-.4.3-.4.4s.1.3.4.4a3.19,3.19,0,0,0,2.7,0c.2-.1.4-.3.4-.4s-.1-.3-.4-.4A2.5,2.5,0,0,0,92.8,16.26Z"/><ellipse class="cls-3" cx="86" cy="20.96" rx="2.3" ry="1.3"/><path class="cls-1" d="M86,23a4.55,4.55,0,0,1-2-.5A1.88,1.88,0,0,1,83,21a1.88,1.88,0,0,1,1-1.5h0a4.45,4.45,0,0,1,3.9,0,1.88,1.88,0,0,1,1,1.5,1.88,1.88,0,0,1-1,1.5A3.83,3.83,0,0,1,86,23Zm-1.4-2.4c-.2.1-.4.3-.4.4s.1.3.4.4a3.19,3.19,0,0,0,2.7,0c.2-.1.4-.3.4-.4s-.1-.3-.4-.4a3.19,3.19,0,0,0-2.7,0Z"/><ellipse class="cls-3" cx="79.2" cy="24.96" rx="2.3" ry="1.3"/><path class="cls-1" d="M79.2,26.86a4.55,4.55,0,0,1-2-.5,1.88,1.88,0,0,1-1-1.5,1.88,1.88,0,0,1,1-1.5,4.45,4.45,0,0,1,3.9,0,1.88,1.88,0,0,1,1,1.5,1.88,1.88,0,0,1-1,1.5A3,3,0,0,1,79.2,26.86Zm0-2.7a3.19,3.19,0,0,0-1.4.3h0c-.2.1-.4.3-.4.4s.1.3.4.4a3.19,3.19,0,0,0,2.7,0c.2-.1.4-.3.4-.4s-.1-.3-.4-.4A2.5,2.5,0,0,0,79.2,24.16Z"/><path class="cls-3" d="M70.7,28a1,1,0,0,0,0,1.9,3.82,3.82,0,0,0,3.3,0A1,1,0,0,0,74,28,3.25,3.25,0,0,0,70.7,28Z"/><path class="cls-1" d="M72.4,30.86a4.55,4.55,0,0,1-2-.5,1.88,1.88,0,0,1-1-1.5,1.88,1.88,0,0,1,1-1.5h0a4.45,4.45,0,0,1,3.9,0,1.88,1.88,0,0,1,1,1.5,1.88,1.88,0,0,1-1,1.5A3.83,3.83,0,0,1,72.4,30.86Zm0-2.8a3.19,3.19,0,0,0-1.4.3h0c-.2.1-.4.3-.4.4s.1.3.4.4a3.19,3.19,0,0,0,2.7,0c.2-.1.4-.3.4-.4s-.1-.3-.4-.4A3.08,3.08,0,0,0,72.4,28.06Z"/><path class="cls-1" d="M79.9,26l-1.5-.2s.4-3.8-1.5-6.3a5.86,5.86,0,0,0-4.1-2.1,5.72,5.72,0,0,0-5.1,1.9,6.85,6.85,0,0,0-1.4,6.2l-1.5.4a8.32,8.32,0,0,1,1.8-7.6,7.25,7.25,0,0,1,6.4-2.4,7.54,7.54,0,0,1,5.1,2.7C80.4,21.56,79.9,25.76,79.9,26Z"/><path class="cls-1" d="M86.7,22.06l-1.5-.2s.4-3.8-1.5-6.3a5.86,5.86,0,0,0-4.1-2.1,5.72,5.72,0,0,0-5.1,1.9,6.85,6.85,0,0,0-1.4,6.2l-1.5.4a8.32,8.32,0,0,1,1.8-7.6A7.25,7.25,0,0,1,79.8,12a7.54,7.54,0,0,1,5.1,2.7C87.2,17.66,86.7,21.86,86.7,22.06Z"/><path class="cls-1" d="M93.5,18.06l-1.5-.2s.4-3.8-1.5-6.3a5.86,5.86,0,0,0-4.1-2.1,5.72,5.72,0,0,0-5.1,1.9,6.85,6.85,0,0,0-1.4,6.2l-1.5.4a8.32,8.32,0,0,1,1.8-7.6A7.25,7.25,0,0,1,86.6,8a7.54,7.54,0,0,1,5.1,2.7A10.67,10.67,0,0,1,93.5,18.06Z"/><path class="cls-1" d="M100.4,14.26l-1.5-.2s.4-3.8-1.5-6.3a5.86,5.86,0,0,0-4.1-2.1,5.72,5.72,0,0,0-5.1,1.9,6.85,6.85,0,0,0-1.4,6.2l-1.5.4a8.32,8.32,0,0,1,1.8-7.6,7.25,7.25,0,0,1,6.4-2.4,7.54,7.54,0,0,1,5.1,2.7C100.9,9.76,100.4,14.06,100.4,14.26Z"/><path class="cls-1" d="M107.2,10.16l-1.5-.2s.4-3.8-1.5-6.3a5.86,5.86,0,0,0-4.1-2.1A5.72,5.72,0,0,0,95,3.46a6.85,6.85,0,0,0-1.4,6.2l-1.5.4a8.32,8.32,0,0,1,1.8-7.6,7.25,7.25,0,0,1,6.4-2.4,7.54,7.54,0,0,1,5.1,2.7C107.7,5.76,107.2,10,107.2,10.16Z"/><path class="cls-1" d="M60.3,34.06a8.86,8.86,0,0,1-1.7-10.2,7.24,7.24,0,0,1,7.6-4.1,7.54,7.54,0,0,1,5.1,2.7c2.4,3,1.9,7.2,1.9,7.4l-1.5-.2s.4-3.8-1.5-6.3a5.86,5.86,0,0,0-4.1-2.1,5.64,5.64,0,0,0-6,3.3A7.2,7.2,0,0,0,61.6,33Z"/><path class="cls-3" d="M66.1,21.36l-.9-.3a8.08,8.08,0,0,1,.7-1.4l.8.5A4,4,0,0,0,66.1,21.36Z"/><path class="cls-3" d="M73,17.36l-.9-.3a8.08,8.08,0,0,1,.7-1.4l.8.5A4,4,0,0,0,73,17.36Z"/><path class="cls-3" d="M79.8,13.46l-.9-.3a8.08,8.08,0,0,1,.7-1.4l.8.5A4,4,0,0,0,79.8,13.46Z"/><path class="cls-3" d="M86.7,9.46l-.9-.3a8.08,8.08,0,0,1,.7-1.4l.8.5A4,4,0,0,0,86.7,9.46Z"/><path class="cls-3" d="M93.3,5.86l-.9-.3a8.08,8.08,0,0,1,.7-1.4l.8.5A4,4,0,0,0,93.3,5.86Z"/><path class="cls-3" d="M131.5,45.16l-13.3,7.7-2.8-1.6v-5.6a19.62,19.62,0,0,0-.2-3.3,3,3,0,0,0-.6-1.4,6.34,6.34,0,0,0-1.2-1,4,4,0,0,0-2.3-.6,4.11,4.11,0,0,0-2.3.7,3.89,3.89,0,0,0-1.6,1.5,4.76,4.76,0,0,0-.7,2.1l-4.8-.2a8.31,8.31,0,0,1,.6-2.3,4.84,4.84,0,0,1,1.3-1.6,14,14,0,0,1,2.2-1.6,10.94,10.94,0,0,1,3.8-1.4,13.11,13.11,0,0,1,3.9-.2,8,8,0,0,1,3.4,1.1,6.88,6.88,0,0,1,2,1.7,4,4,0,0,1,.9,2.2,13,13,0,0,1,0,4l-.1,2.7.2.1,8.3-4.8Z"/><path class="cls-1" d="M118.2,53.56l-3.4-1.9-.1-5.9a19.06,19.06,0,0,0-.2-3.2,3.34,3.34,0,0,0-.5-1.2,4.5,4.5,0,0,0-1-.9,3,3,0,0,0-2-.5,3.61,3.61,0,0,0-2,.6,4.42,4.42,0,0,0-1.4,1.3,5.31,5.31,0,0,0-.6,1.9l-.1.5L101,44l.1-.6a6.82,6.82,0,0,1,.7-2.5,7.34,7.34,0,0,1,1.4-1.8,15.26,15.26,0,0,1,2.3-1.7,13.76,13.76,0,0,1,4-1.5,14.3,14.3,0,0,1,4.1-.2,9.56,9.56,0,0,1,3.6,1.2,8.17,8.17,0,0,1,2.2,1.8,5.13,5.13,0,0,1,1,2.4,13.62,13.62,0,0,1,0,4.1l-.1,1.9,7.9-4.5,4.5,2.6ZM116,51l2.2,1.3,12.1-7L128.1,44l-8.3,4.8-.8-.4.2-3.1a23.17,23.17,0,0,0,0-3.8,3.67,3.67,0,0,0-.8-1.9,4.53,4.53,0,0,0-1.8-1.5,8,8,0,0,0-3.2-1,9.86,9.86,0,0,0-3.8.2,11.25,11.25,0,0,0-3.6,1.4,9.51,9.51,0,0,0-2.1,1.5,6,6,0,0,0-1.1,1.4,5.27,5.27,0,0,0-.5,1.5l3.6.2a4.84,4.84,0,0,1,.7-1.8,4,4,0,0,1,1.9-1.7,5.53,5.53,0,0,1,2.5-.7,4.84,4.84,0,0,1,2.6.7A4.07,4.07,0,0,1,115,41a3.25,3.25,0,0,1,.7,1.7c.1.6.2,1.8.3,3.4Z"/><path class="cls-3" d="M132,27.76a3.75,3.75,0,0,1,2,2.4,3.17,3.17,0,0,1-1.3,2.7l.1.1a11.73,11.73,0,0,1,4.9-1.2,7.77,7.77,0,0,1,4.2,1.1c1.8,1.1,2.6,2.3,2.3,3.6s-1.7,2.7-4.2,4.2a22.69,22.69,0,0,1-6.5,2.6l-3.4-2a24.59,24.59,0,0,0,3.4-.9,16.88,16.88,0,0,0,3-1.3c1.3-.8,2.1-1.5,2.3-2.1s-.2-1.2-1.2-1.8a4.4,4.4,0,0,0-3-.5,12.84,12.84,0,0,0-4,1.7l-1.4.8-3.1-1.8,1.5-.8a6.48,6.48,0,0,0,2.7-2.2c.3-.6,0-1.2-1-1.7a4.84,4.84,0,0,0-4.9.3,7,7,0,0,0-1.6,1.3,6.79,6.79,0,0,0-1.1,1.9l-4.6-.5c.5-1.7,1.9-3.3,4.3-4.7a15.32,15.32,0,0,1,5.9-2A7,7,0,0,1,132,27.76Z"/><path class="cls-1" d="M133.3,43.76l-5-2.9,1.5-.3a20.25,20.25,0,0,0,3.3-.9,19.46,19.46,0,0,0,2.9-1.3c1.6-.9,1.9-1.5,2-1.8s-.5-.8-1-1.1a3.81,3.81,0,0,0-2.6-.4,13.89,13.89,0,0,0-3.9,1.6l-1.7,1-4.3-2.4,2.3-1.3a6,6,0,0,0,2.4-1.9c.1-.1.2-.4-.7-1a4.21,4.21,0,0,0-4.3.3,4.43,4.43,0,0,0-1.5,1.2,6.93,6.93,0,0,0-1,1.7l-.2.4-5.8-.7.2-.7c.5-1.9,2.1-3.6,4.6-5a14.83,14.83,0,0,1,6.1-2.1,8.78,8.78,0,0,1,5.4,1h0a3.68,3.68,0,0,1,2.2,2.8,2.59,2.59,0,0,1-.3,1.7,10.61,10.61,0,0,1,3.4-.6,8.83,8.83,0,0,1,4.5,1.1c2.1,1.2,2.9,2.6,2.6,4.3-.4,1.5-1.8,3-4.4,4.5a23.88,23.88,0,0,1-6.7,2.6v.2Zm-1.7-2.4,1.9,1.1a20.16,20.16,0,0,0,6.1-2.5c2.3-1.3,3.6-2.6,3.9-3.8.1-.4.4-1.6-2-3a7.56,7.56,0,0,0-3.9-1,11.26,11.26,0,0,0-4.7,1.2l-.3.1-1-.6.6-.5a2.91,2.91,0,0,0,1.1-2.3,2.58,2.58,0,0,0-1.7-1.9,8,8,0,0,0-4.7-.9,13.82,13.82,0,0,0-5.6,1.9,8.49,8.49,0,0,0-3.8,3.7l3.5.4a6.24,6.24,0,0,1,1-1.6,11.51,11.51,0,0,1,1.7-1.4c2-1.2,3.8-1.3,5.5-.3s1.5,2,1.2,2.5a7.52,7.52,0,0,1-2.9,2.4l-.6.3,1.9,1.1,1.1-.7a19.44,19.44,0,0,1,4.2-1.8,5,5,0,0,1,3.4.5c1.6.9,1.7,1.8,1.5,2.5s-1.1,1.6-2.5,2.4a18,18,0,0,1-3.1,1.4A3.59,3.59,0,0,1,131.6,41.36Z"/><path class="cls-3" d="M81.1,179.86h-20a.43.43,0,0,0-.4.4v6.2h0c0,.6.5,1.2,1.4,1.7l6,3.5a5.89,5.89,0,0,0,5.6.2l6.8-3.9a1.68,1.68,0,0,0,1-1.5h0v-6.2A.43.43,0,0,0,81.1,179.86Z"/><path class="cls-1" d="M71.2,193.16a7,7,0,0,1-3.5-.9l-6-3.5a2.76,2.76,0,0,1-1.5-1.7h-.1v-6.8a1,1,0,0,1,1-1h20a1,1,0,0,1,1,1v6.8H82a2.36,2.36,0,0,1-1.2,1.4l-6.8,3.9A5.38,5.38,0,0,1,71.2,193.16Zm-9.9-6.8h0c0,.5.4.9,1.1,1.3l6,3.5a5.54,5.54,0,0,0,5,.2l6.8-3.9c.3-.2.7-.5.6-.9v-.7h0v-5.4H61.2Z"/><path class="cls-1" d="M81.1,179.86H71.9v12.6a4.76,4.76,0,0,0,1.8-.5l6.8-3.9a1.68,1.68,0,0,0,1-1.5h0v-6.3A.43.43,0,0,0,81.1,179.86Z"/><path class="cls-2" d="M80.5,181.46l-6.8,3.9a6.5,6.5,0,0,1-5.6-.2l-6-3.5c-1.7-1-1.9-2.4-.4-3.3l6.8-3.9a6.5,6.5,0,0,1,5.6.2l6,3.5C81.8,179.16,81.9,180.56,80.5,181.46Z"/><path class="cls-1" d="M71.2,186.56a7,7,0,0,1-3.5-.9l-6-3.5a2.87,2.87,0,0,1-1.7-2.4,2.16,2.16,0,0,1,1.3-1.9l6.8-3.9a7.35,7.35,0,0,1,6.3.2l6,3.5a2.87,2.87,0,0,1,1.7,2.4,2.16,2.16,0,0,1-1.3,1.9l-6.8,3.9A5.3,5.3,0,0,1,71.2,186.56Zm-.3-12a4.34,4.34,0,0,0-2.1.5L62,179c-.3.2-.7.5-.7.9s.4.9,1.1,1.3l6,3.5a5.54,5.54,0,0,0,5,.2l6.8-3.9c.3-.2.7-.5.7-.9s-.4-.9-1.1-1.3l-6-3.5A5.92,5.92,0,0,0,70.9,174.56Z"/><rect class="cls-1" x="68.1" y="185.46" width="1.2" height="6.6"/><rect class="cls-3" x="78.7" y="183.76" width="1" height="3.2"/><path class="cls-3" d="M336.4,145.56h-20a.43.43,0,0,0-.4.4v6.2h0c0,.6.5,1.2,1.4,1.7l6,3.5a5.89,5.89,0,0,0,5.6.2l6.8-3.9a1.68,1.68,0,0,0,1-1.5h0V146A.43.43,0,0,0,336.4,145.56Z"/><path class="cls-1" d="M326.6,158.86a7,7,0,0,1-3.5-.9l-6-3.5a2.76,2.76,0,0,1-1.5-1.7h-.1V146a1,1,0,0,1,1-1h20a1,1,0,0,1,1,1v6.8h-.1a2.36,2.36,0,0,1-1.2,1.4l-6.8,3.9A5.38,5.38,0,0,1,326.6,158.86Zm-10-6.8h0c0,.5.4.9,1.1,1.3l6,3.5a5.54,5.54,0,0,0,5,.2l6.8-3.9c.3-.2.7-.5.7-.9v-.7h0v-5.4H316.6Z"/><path class="cls-1" d="M336.4,145.56h-9.2v12.6a4.76,4.76,0,0,0,1.8-.5l6.8-3.9a1.68,1.68,0,0,0,1-1.5h0v-6.2A.46.46,0,0,0,336.4,145.56Z"/><path class="cls-2" d="M335.8,147.16l-6.8,3.9a6.5,6.5,0,0,1-5.6-.2l-6-3.5c-1.7-1-1.8-2.4-.4-3.3l6.8-3.9a6.5,6.5,0,0,1,5.6.2l6,3.5C337.1,144.86,337.3,146.26,335.8,147.16Z"/><path class="cls-1" d="M326.6,152.26a7,7,0,0,1-3.5-.9l-6-3.5a2.87,2.87,0,0,1-1.7-2.4,2.16,2.16,0,0,1,1.3-1.9l6.8-3.9a7.35,7.35,0,0,1,6.3.2l6,3.5a2.87,2.87,0,0,1,1.7,2.4,2.16,2.16,0,0,1-1.3,1.9l-6.8,3.9A5.3,5.3,0,0,1,326.6,152.26Zm-.4-12.1a4.34,4.34,0,0,0-2.1.5l-6.8,3.9c-.3.2-.7.5-.7.9s.4.9,1.1,1.3l6,3.5a5.54,5.54,0,0,0,5,.2l6.8-3.9c.3-.2.7-.5.7-.9s-.4-.9-1.1-1.3l-6-3.5A6.89,6.89,0,0,0,326.2,140.16Z"/><rect class="cls-1" x="323.4" y="151.16" width="1.2" height="6.6"/><rect class="cls-3" x="334" y="149.46" width="1" height="3.2"/><path class="cls-3" d="M21,138.86H1a.43.43,0,0,0-.4.4v6.2h0c0,.6.5,1.2,1.4,1.7l6,3.5a5.89,5.89,0,0,0,5.6.2l6.8-3.9a1.68,1.68,0,0,0,1-1.5h0v-6.2A.43.43,0,0,0,21,138.86Z"/><path class="cls-1" d="M11.2,152.16a7,7,0,0,1-3.5-.9l-6-3.5a3.29,3.29,0,0,1-1.6-1.7H0v-6.8a1,1,0,0,1,1-1H21a1,1,0,0,1,1,1v6.8h-.1a2.36,2.36,0,0,1-1.2,1.4l-6.8,3.9A4.78,4.78,0,0,1,11.2,152.16Zm-10-6.8h0c0,.5.4.9,1.1,1.3l6,3.5a5.25,5.25,0,0,0,5,.2l6.8-3.9c.3-.2.7-.5.6-.9l-.1-.7h.1v-5.4H1.1Z"/><path class="cls-1" d="M21,138.86H11.8v12.6a4.76,4.76,0,0,0,1.8-.5l6.8-3.9a1.68,1.68,0,0,0,1-1.5h0v-6.3A.43.43,0,0,0,21,138.86Z"/><path class="cls-2" d="M20.4,140.36l-6.8,3.9a6.5,6.5,0,0,1-5.6-.2l-6-3.5c-1.7-1-1.8-2.4-.4-3.3l6.8-3.9a6.5,6.5,0,0,1,5.6.2l6,3.5C21.7,138.16,21.9,139.56,20.4,140.36Z"/><path class="cls-1" d="M11.2,145.56a7,7,0,0,1-3.5-.9l-6-3.5a2.87,2.87,0,0,1-1.7-2.4,2.16,2.16,0,0,1,1.3-1.9L8.1,133a7.13,7.13,0,0,1,6.2.2l6,3.5a2.87,2.87,0,0,1,1.7,2.4,2.16,2.16,0,0,1-1.3,1.9l-6.8,3.9A4.73,4.73,0,0,1,11.2,145.56Zm-.4-12a4.34,4.34,0,0,0-2.1.5L1.9,138c-.3.2-.7.5-.7.9s.4.9,1.1,1.3l6,3.5a5.54,5.54,0,0,0,5,.2l6.8-3.9c.3-.2.7-.5.7-.9s-.4-.9-1.1-1.3l-6-3.5A5.66,5.66,0,0,0,10.8,133.56Z"/><rect class="cls-1" x="8" y="144.46" width="1.2" height="6.6"/><rect class="cls-3" x="18.6" y="142.76" width="0.9" height="3.2"/><path class="cls-3" d="M18.5,115.66h0c-.1-.1-.2-.1-.3.1l-9.1,16.3-.8.1-2.5-1.5-.5-.6-3.4-1.7c-.2-.1-.4.3-.3.5l7,10.2,3.2,1.7h.1l.6-5,8.3-15.9,1.1-2.3c0-.1,0-.1-.1-.2Z"/><path class="cls-1" d="M11.8,141.16l-.3-.1-3.3-1.8-.1-.1L1.1,129a.92.92,0,0,1,.1-1,.53.53,0,0,1,.8-.1l3.5,1.8.5.6,2.2,1.4h.4l8.9-16a.62.62,0,0,1,.6-.4c.1,0,.3.1.4.1l3.2,1.6c.2.1.3.2.3.4s0,.3,0,.5l-1.1,2.3L12.7,136l-.6,5.1Zm-2.9-2.6,2.5,1.4.6-4.5,9.2-17.8-2.8-1.4-9.1,16.3-1.2.1L5.4,131l-.5-.6-2.6-1.3Z"/><path class="cls-1" d="M5.1,130.46l7,10.2a.1.1,0,0,0,.1-.1l9.8-22.9c.1-.3-.1-.4-.3-.1l-9.2,16.6-.1.1-6.9-4.1C5.2,130,4.9,130.36,5.1,130.46Z"/><path class="cls-1" d="M11.8,141.16l-.2-.3-7-10.2a.92.92,0,0,1,.1-1,.53.53,0,0,1,.8-.1l6.5,3.9,9-16.2a.74.74,0,0,1,.9-.4.63.63,0,0,1,.3.9l-9.8,22.9a1,1,0,0,1-.5.4ZM5.9,131l6,8.8L19,123l-6.4,11.6-.3.1a.6.6,0,0,1-.4-.1Z"/><path class="cls-3" d="M302.4,89.06h-20a.43.43,0,0,0-.4.4v6.2h0c0,.6.5,1.2,1.4,1.7l6,3.5a5.89,5.89,0,0,0,5.6.2l6.8-3.9a1.68,1.68,0,0,0,1-1.5h0v-6.2A.37.37,0,0,0,302.4,89.06Z"/><path class="cls-1" d="M292.6,102.26a7,7,0,0,1-3.5-.9l-6-3.5a2.76,2.76,0,0,1-1.5-1.7h-.1v-6.8a.91.91,0,0,1,.3-.7,1.08,1.08,0,0,1,.7-.3h20a1,1,0,0,1,1,1v6.8h-.1a2.36,2.36,0,0,1-1.2,1.4l-6.8,3.9A4.59,4.59,0,0,1,292.6,102.26Zm-10-6.7h0c0,.5.4.9,1.1,1.3l6,3.5a5.25,5.25,0,0,0,5,.2l6.8-3.9c.3-.2.7-.5.7-.9v-.7h0v-5.4H282.6Z"/><path class="cls-1" d="M302.4,89.06h-9.2v12.6a4.76,4.76,0,0,0,1.8-.5l6.8-3.9a1.68,1.68,0,0,0,1-1.5h0v-6.2A.46.46,0,0,0,302.4,89.06Z"/><path class="cls-2" d="M301.9,90.56l-6.8,3.9a6.5,6.5,0,0,1-5.6-.2l-6-3.5c-1.7-1-1.8-2.4-.4-3.3l6.8-3.9a6.5,6.5,0,0,1,5.6.2l6,3.5C303.1,88.26,303.3,89.76,301.9,90.56Z"/><path class="cls-1" d="M292.6,95.66a7,7,0,0,1-3.5-.9l-6-3.5a2.87,2.87,0,0,1-1.7-2.4,2.16,2.16,0,0,1,1.3-1.9l6.8-3.9a7.13,7.13,0,0,1,6.2.2l6,3.5a2.87,2.87,0,0,1,1.7,2.4,2.16,2.16,0,0,1-1.3,1.9h0L295.3,95A4.73,4.73,0,0,1,292.6,95.66Zm-.3-12a4.34,4.34,0,0,0-2.1.5l-6.8,3.9c-.3.2-.7.5-.7.9s.4.9,1.1,1.3l6,3.5a5.54,5.54,0,0,0,5,.2l6.8-3.9c.3-.2.7-.5.7-.9s-.4-.9-1.1-1.3l-6-3.5A5.92,5.92,0,0,0,292.3,83.66Z"/><rect class="cls-1" x="289.4" y="94.56" width="1.2" height="6.6"/><rect class="cls-3" x="300" y="92.96" width="1" height="3.2"/><path class="cls-3" d="M299.9,64.86h0c-.1-.1-.2-.1-.3.1l-9.1,16.3h-.7l-2.5-1.5-.5-.6-3.4-1.7c-.2-.1-.4.3-.3.5l7,10.2,3.2,1.7h.1l.6-5L302.3,69l1.1-2.3c0-.1,0-.1-.1-.2Z"/><path class="cls-1" d="M293.3,90.36l-.3-.1-3.3-1.8-7-10.3a.8.8,0,0,1,.2-1,.52.52,0,0,1,.8-.1l3.5,1.8.5.6,2.2,1.4h.3l8.9-16a.72.72,0,0,1,.6-.4c.2,0,.3.1.4.1l3.2,1.6c.2.1.3.2.3.4v.5l-1.1,2.3-8.2,15.8-.6,5.1Zm-2.9-2.7,2.5,1.4.6-4.5,9.2-17.8-2.8-1.4-9.1,16.3-1.2.1-2.7-1.7-.5-.6-2.6-1.3Z"/><path class="cls-1" d="M286.5,79.66l7,10.2a.1.1,0,0,0,.1-.1l9.8-22.9c.1-.3-.1-.4-.3-.1l-9.3,16.5-.1.1-6.9-4.1C286.6,79.06,286.4,79.46,286.5,79.66Z"/><path class="cls-1" d="M293.3,90.36l-.2-.3-7-10.2a.92.92,0,0,1,.1-1,.52.52,0,0,1,.8-.1l6.5,3.9,9-16.2a.74.74,0,0,1,.9-.4.63.63,0,0,1,.3.9l-9.8,22.9a1,1,0,0,1-.5.4Zm-5.9-10.3,6,8.8,7.1-16.8L294,83.66l-.3.1a.6.6,0,0,1-.4-.1Z"/><path class="cls-3" d="M257.1,205.86h-20a.43.43,0,0,0-.4.4v17.5h0c0,.6.5,1.2,1.4,1.7l6,3.5a5.89,5.89,0,0,0,5.6.2l6.8-3.9a1.68,1.68,0,0,0,1-1.5h0v-17.5C257.6,206.06,257.4,205.86,257.1,205.86Z"/><path class="cls-1" d="M247.3,230.46a7,7,0,0,1-3.5-.9l-6-3.5a3,3,0,0,1-1.5-1.7h-.1v-18.1a1,1,0,0,1,1-1h20a1,1,0,0,1,1,1v18.2h-.1a2.36,2.36,0,0,1-1.2,1.4l-6.8,3.9A5.3,5.3,0,0,1,247.3,230.46Zm-9.9-6.7h0c0,.5.4.9,1.1,1.3l6,3.5a5.25,5.25,0,0,0,5,.2l6.8-3.9c.3-.2.7-.5.7-.9v-.7h0v-16.8H237.4Z"/><path class="cls-1" d="M257.1,205.86h-9.2v24a4.76,4.76,0,0,0,1.8-.5l6.8-3.9a1.68,1.68,0,0,0,1-1.5h0v-17.7C257.6,206.06,257.4,205.86,257.1,205.86Z"/><path class="cls-2" d="M256.6,207.36l-6.8,3.9a6.5,6.5,0,0,1-5.6-.2l-6-3.5c-1.7-1-1.8-2.4-.4-3.3l6.8-3.9a6.5,6.5,0,0,1,5.6.2l6,3.5C257.9,205.16,258,206.56,256.6,207.36Z"/><path class="cls-1" d="M247.3,212.56a7,7,0,0,1-3.5-.9l-6-3.5a2.87,2.87,0,0,1-1.7-2.4,2.42,2.42,0,0,1,1.3-2l6.8-3.9c1.6-1,4.4-.8,6.2.2l6,3.5a2.87,2.87,0,0,1,1.7,2.4,2.16,2.16,0,0,1-1.3,1.9l-6.8,3.9A4.12,4.12,0,0,1,247.3,212.56Zm-.3-12a4.34,4.34,0,0,0-2.1.5l-6.8,3.9c-.3.2-.7.5-.7.9s.4.9,1.1,1.3l6,3.5a5.25,5.25,0,0,0,5,.2l6.8-3.9c.3-.2.7-.5.7-.9s-.4-.9-1.1-1.3l-6-3.5A5.66,5.66,0,0,0,247,200.56Z"/><rect class="cls-1" x="244.2" y="211.46" width="1.2" height="17.9"/><rect class="cls-3" x="254.8" y="209.76" width="1" height="14.6"/><path class="cls-3" d="M271,224.56H251a.43.43,0,0,0-.4.4v6.2h0c0,.6.5,1.2,1.4,1.7l6,3.5a5.89,5.89,0,0,0,5.6.2l6.8-3.9a1.68,1.68,0,0,0,1-1.5h0V225A.43.43,0,0,0,271,224.56Z"/><path class="cls-1" d="M261.2,237.76a7,7,0,0,1-3.5-.9l-6-3.5a3,3,0,0,1-1.5-1.7h-.1v-6.8a1,1,0,0,1,1-1h20a1,1,0,0,1,1,1v6.8H272a2.36,2.36,0,0,1-1.2,1.4L264,237A4.59,4.59,0,0,1,261.2,237.76Zm-10-6.7h0c0,.5.4.9,1.1,1.3l6,3.5a5.25,5.25,0,0,0,5,.2l6.8-3.9c.3-.2.7-.5.7-.9v-.7h.1v-5.4H251.3Z"/><path class="cls-1" d="M271,224.56h-9.2v12.6a4.76,4.76,0,0,0,1.8-.5l6.8-3.9a1.68,1.68,0,0,0,1-1.5h0v-6.2A.46.46,0,0,0,271,224.56Z"/><path class="cls-2" d="M270.5,226.06l-6.8,3.9a6.5,6.5,0,0,1-5.6-.2l-6-3.5c-1.7-1-1.9-2.4-.4-3.3l6.8-3.9a6.5,6.5,0,0,1,5.6.2l6,3.5C271.7,223.76,271.9,225.26,270.5,226.06Z"/><path class="cls-1" d="M261.2,231.16a7,7,0,0,1-3.5-.9l-6-3.5a2.87,2.87,0,0,1-1.7-2.4,2.16,2.16,0,0,1,1.3-1.9l6.8-3.9a7.13,7.13,0,0,1,6.2.2l6,3.5a2.87,2.87,0,0,1,1.7,2.4,2.42,2.42,0,0,1-1.3,2l-6.8,3.9A5.67,5.67,0,0,1,261.2,231.16Zm-.4-12a4.34,4.34,0,0,0-2.1.5l-6.8,3.9c-.3.2-.7.5-.7.9s.4.9,1.1,1.3l6,3.5a5.25,5.25,0,0,0,5,.2l6.8-3.9c.3-.2.7-.5.7-.9s-.4-.9-1.1-1.3l-6-3.5A5.66,5.66,0,0,0,260.8,219.16Z"/><rect class="cls-1" x="258" y="230.06" width="1.2" height="6.5"/><rect class="cls-3" x="268.6" y="228.46" width="1" height="3.2"/><path class="cls-3" d="M254,182.16h0c-.1-.1-.2-.1-.3.1l-9.1,16.3-.8.1-2.5-1.5-.5-.6-3.4-1.7c-.2-.1-.4.3-.3.5l7,10.2,3.2,1.7h.1l.6-5,8.3-15.9,1.1-2.3c0-.1,0-.1-.1-.2Z"/><path class="cls-1" d="M247.3,207.66l-.3-.1-3.3-1.8-.1-.1-7-10.2a.8.8,0,0,1,.2-1,.52.52,0,0,1,.8-.1l3.5,1.8.5.6,2.2,1.4h.4l8.9-16a.72.72,0,0,1,.6-.4h0c.2,0,.3.1.4.1l3.2,1.6c.2.1.3.2.3.4v.5l-1.1,2.3-8.2,15.8-.6,5.1Zm-2.8-2.7,2.5,1.4.6-4.5,9.2-17.8-2.8-1.4L244.9,199l-1.2.1-2.7-1.7-.5-.6-2.6-1.3Z"/><path class="cls-1" d="M240.6,197l7,10.2a.1.1,0,0,0,.1-.1l9.8-22.9c.1-.3-.1-.4-.3-.1l-9.2,16.6s-.1.1-.1,0l-6.9-4.1C240.7,196.36,240.5,196.76,240.6,197Z"/><path class="cls-1" d="M247.3,207.66l-.2-.3-7-10.2a.92.92,0,0,1,.1-1,.52.52,0,0,1,.8-.1l6.5,3.9,9-16.2a.74.74,0,0,1,.9-.4.63.63,0,0,1,.3.9l-9.8,22.9a1,1,0,0,1-.5.4Zm-5.8-10.3,6,8.8,7.1-16.8L248.1,201l-.3.1a.6.6,0,0,1-.4-.1Z"/><path class="cls-3" d="M142.9,178.26h-20a.43.43,0,0,0-.4.4V220h0c0,.6.5,1.2,1.4,1.7l6,3.5a5.89,5.89,0,0,0,5.6.2l6.8-3.9a1.68,1.68,0,0,0,1-1.5h0v-41.3A.43.43,0,0,0,142.9,178.26Z"/><path class="cls-1" d="M133.1,226.66a7,7,0,0,1-3.5-.9l-6-3.5a3,3,0,0,1-1.5-1.7H122v-41.9a1,1,0,0,1,1-1h20a1,1,0,0,1,1,1v41.9h-.2a2.36,2.36,0,0,1-1.2,1.4l-6.8,3.9A4.78,4.78,0,0,1,133.1,226.66Zm-10-6.8h0c0,.5.4.9,1.1,1.3l6,3.5a5.25,5.25,0,0,0,5,.2L142,221c.3-.2.7-.5.6-.9v-.7h0v-40.5H123Z"/><path class="cls-1" d="M142.9,178.26h-9.2V226a4.76,4.76,0,0,0,1.8-.5l6.8-3.9a1.68,1.68,0,0,0,1-1.5h0v-41.3A.46.46,0,0,0,142.9,178.26Z"/><path class="cls-2" d="M142.3,179.86l-6.8,3.9a6.5,6.5,0,0,1-5.6-.2l-6-3.5c-1.7-1-1.9-2.4-.4-3.3l6.8-3.9a6.5,6.5,0,0,1,5.6.2l6,3.5C143.6,177.56,143.8,179,142.3,179.86Z"/><path class="cls-1" d="M133.1,185a7,7,0,0,1-3.5-.9l-6-3.5a2.87,2.87,0,0,1-1.7-2.4,2.16,2.16,0,0,1,1.3-1.9l6.8-3.9a7.35,7.35,0,0,1,6.3.2l6,3.5a2.87,2.87,0,0,1,1.7,2.4,2.16,2.16,0,0,1-1.3,1.9l-6.9,3.9A4.73,4.73,0,0,1,133.1,185Zm-.4-12a4.34,4.34,0,0,0-2.1.5l-6.8,3.9c-.3.2-.7.5-.7.9s.4.9,1.1,1.3l6,3.5a5.25,5.25,0,0,0,5,.2l6.8-3.9c.3-.2.7-.5.7-.9s-.4-.9-1.1-1.3l-6-3.5A5.66,5.66,0,0,0,132.7,173Z"/><rect class="cls-1" x="129.9" y="183.86" width="1.2" height="41.7"/><rect class="cls-3" x="140.5" y="182.16" width="1" height="38.3"/><path class="cls-3" d="M128.9,213.86h-20a.43.43,0,0,0-.4.4v20.4h0c0,.6.5,1.2,1.4,1.7l6,3.5a5.89,5.89,0,0,0,5.6.2l6.8-3.9a1.68,1.68,0,0,0,1-1.5h0v-20.4A.43.43,0,0,0,128.9,213.86Z"/><path class="cls-1" d="M119.1,241.36a7,7,0,0,1-3.5-.9l-6-3.5a3,3,0,0,1-1.5-1.7H108v-21a1,1,0,0,1,1-1h20a.91.91,0,0,1,.7.3,1.08,1.08,0,0,1,.3.7v21h-.2a2.36,2.36,0,0,1-1.2,1.4l-6.8,3.9A4.12,4.12,0,0,1,119.1,241.36Zm-10-6.7h0c0,.5.4.9,1.1,1.3l6,3.5a5.25,5.25,0,0,0,5,.2l6.8-3.9c.3-.2.7-.5.6-.9v-.7h0v-19.6H109Z"/><path class="cls-1" d="M128.9,213.86h-9.2v26.8a4.76,4.76,0,0,0,1.8-.5l6.8-3.9a1.68,1.68,0,0,0,1-1.5h0v-20.5A.43.43,0,0,0,128.9,213.86Z"/><path class="cls-2" d="M128.3,215.36l-6.8,3.9a6.5,6.5,0,0,1-5.6-.2l-6-3.5c-1.7-1-1.9-2.4-.4-3.3l6.8-3.9a6.5,6.5,0,0,1,5.6.2l6,3.5C129.6,213.16,129.8,214.56,128.3,215.36Z"/><path class="cls-1" d="M119.1,220.56a7,7,0,0,1-3.5-.9l-6-3.5a2.87,2.87,0,0,1-1.7-2.4,2.42,2.42,0,0,1,1.3-2l6.8-3.9c1.6-1,4.4-.8,6.3.2l6,3.5A2.87,2.87,0,0,1,130,214a2.16,2.16,0,0,1-1.3,1.9l-6.8,3.9A4.59,4.59,0,0,1,119.1,220.56Zm-.4-12a4.34,4.34,0,0,0-2.1.5l-6.8,3.9c-.3.2-.7.5-.7.9s.4.9,1.1,1.3l6,3.5a5.25,5.25,0,0,0,5,.2L128,215c.3-.2.7-.5.7-.9s-.4-.9-1.1-1.3l-6-3.5A5.66,5.66,0,0,0,118.7,208.56Z"/><rect class="cls-1" x="115.9" y="219.46" width="1.2" height="20.8"/><rect class="cls-3" x="126.5" y="217.76" width="1" height="17.4"/><path class="cls-3" d="M139.7,154.16h0c-.1-.1-.2-.1-.3.1l-9.1,16.3-.8.1-2.5-1.5-.5-.6-3.4-1.7c-.2-.1-.4.3-.3.5l7,10.2,3.2,1.7h.1l.6-5,8.3-15.9,1.1-2.3c0-.1,0-.1-.1-.2Z"/><path class="cls-1" d="M133.1,179.66l-.3-.1-3.3-1.8-.1-.1-7-10.2a.92.92,0,0,1,.1-1,.52.52,0,0,1,.8-.1l3.5,1.8.5.6,2.2,1.4h.4l8.9-16a.62.62,0,0,1,.6-.4c.1,0,.3.1.4.1l3.2,1.6c.1.1.3.2.3.4v.5l-1.1,2.3-8.2,15.8-.6,5.1Zm-2.9-2.7,2.5,1.4.6-4.5,9.2-17.8-2.8-1.4L130.6,171l-1.2.1-2.7-1.7-.5-.6-2.6-1.3Z"/><path class="cls-1" d="M126.3,168.86l7,10.2a.1.1,0,0,0,.1-.1l9.8-22.9c.1-.3-.1-.4-.3-.1l-9.2,16.6-.1.1-6.9-4.1C126.4,168.36,126.2,168.76,126.3,168.86Z"/><path class="cls-1" d="M133.1,179.66l-.2-.3-7-10.2a.92.92,0,0,1,.1-1,.63.63,0,0,1,.8-.2l6.5,3.9,9-16.2a.74.74,0,0,1,.9-.4.63.63,0,0,1,.3.9l-9.7,23.1a1,1,0,0,1-.5.4Zm-5.9-10.3,6,8.8,7.1-16.8L133.8,173l-.3.1a.6.6,0,0,1-.4-.1Z"/><rect class="cls-3" x="135.29" y="165.82" width="7.1" height="1" transform="translate(-68.51 229.12) rotate(-67)"/><path class="cls-2" d="M152.9,19.46s3.4-.6,4.1,2.4a75,75,0,0,1,1.8,15.5,54.28,54.28,0,0,0,1.4,9.8l-10.5-1.4-2.3-7.6Z"/><path class="cls-1" d="M149.4,46.16l-2.4-7.9,5.6-19.1h.2c1.3-.2,3.9.1,4.6,2.7a79.73,79.73,0,0,1,1.8,15.6,55.93,55.93,0,0,0,1.4,9.7l.1.5Zm3.8-26.3-5.4,18.4,2.2,7.3,9.7,1.3a55.92,55.92,0,0,1-1.3-9.3,71.4,71.4,0,0,0-1.8-15.4,3,3,0,0,0-3.1-2.2A.37.37,0,0,0,153.2,19.86Z"/><path class="cls-1" d="M173.6,92.56a7.45,7.45,0,0,0-2.4-4.1,41.53,41.53,0,0,1-4.8-5.9l-.8-.8-.7.2a54.64,54.64,0,0,1,0,7.2l1.6.9.2-.6a14.59,14.59,0,0,0,3.9,2.9A4.12,4.12,0,0,0,173.6,92.56Z"/><path class="cls-1" d="M170.5,92.66a10.35,10.35,0,0,1-3.6-2.5l-.2.5-2.2-1.3v-.3a53,53,0,0,0,0-7.1v-.3l1.2-.4,1,1.1a43,43,0,0,0,4.8,5.8,7.57,7.57,0,0,1,2.5,4.4v.3l-.3.1a3.54,3.54,0,0,1-1.2.2A6.42,6.42,0,0,1,170.5,92.66Zm.5-4a36.4,36.4,0,0,1-4.8-5.9l-.6-.7-.2.1a37.11,37.11,0,0,1,0,6.7l1,.6.3-.8.4.4a13.55,13.55,0,0,0,3.8,2.8,4.65,4.65,0,0,0,2.4.3A10.87,10.87,0,0,0,171,88.66Z"/><path class="cls-3" d="M169,82.26s.4,3.9,2.2,6.2c0,0-.8,1.7-3.1,0s-2.5-7.3-2.5-7.3Z"/><path class="cls-1" d="M167.9,88.76c-2.4-1.8-2.6-7.4-2.6-7.6v-.6l4.1,1.4v.3s.4,3.8,2.1,6l.2.2-.1.2a2.08,2.08,0,0,1-1.2.9,4.33,4.33,0,0,1-.5.1A5,5,0,0,1,167.9,88.76Zm.7-6.2-2.6-.9c.1,1.4.6,5.2,2.3,6.5a2.25,2.25,0,0,0,1.9.6,1.63,1.63,0,0,0,.6-.3A13.49,13.49,0,0,1,168.6,82.56Z"/><path class="cls-1" d="M169.3,94.46a7.45,7.45,0,0,0-2.4-4.1,41.53,41.53,0,0,1-4.8-5.9l-.8-.8-.7.2a54.64,54.64,0,0,1,0,7.2l1.6.9.2-.6a14.59,14.59,0,0,0,3.9,2.9A4.2,4.2,0,0,0,169.3,94.46Z"/><path class="cls-1" d="M166.2,94.56a10.35,10.35,0,0,1-3.6-2.5l-.2.5-2.2-1.3V91a53,53,0,0,0,0-7.1v-.3l1.2-.4,1,1.1a43,43,0,0,0,4.8,5.8,7.57,7.57,0,0,1,2.5,4.4v.3l-.3.1a3.54,3.54,0,0,1-1.2.2A11.53,11.53,0,0,1,166.2,94.56Zm.4-4a36.4,36.4,0,0,1-4.8-5.9l-.6-.7-.2.1a37.11,37.11,0,0,1,0,6.7l1,.6.3-.8.4.4a13.55,13.55,0,0,0,3.8,2.8,4.65,4.65,0,0,0,2.4.3A9.32,9.32,0,0,0,166.6,90.56Z"/><path class="cls-3" d="M164.6,84.16s.4,3.9,2.2,6.2c0,0-.8,1.7-3.1,0s-2.5-7.3-2.5-7.3Z"/><path class="cls-1" d="M163.5,90.66c-2.4-1.8-2.6-7.4-2.6-7.6v-.6l4.1,1.4v.3s.4,3.8,2.1,6l.2.2-.1.2a2.08,2.08,0,0,1-1.2.9,4.33,4.33,0,0,1-.5.1A5.65,5.65,0,0,1,163.5,90.66Zm.8-6.3-2.6-.9c.1,1.4.6,5.2,2.3,6.5a2.25,2.25,0,0,0,1.9.6,1.63,1.63,0,0,0,.6-.3A12.7,12.7,0,0,1,164.3,84.36Z"/><path class="cls-1" d="M165.9,61.86c3.8-2.1,5.5-3.4,4.7-6.1l-2.3-1.9-7.9-1-4.9,4.5-.7,3.2,4.6,2.9A13.59,13.59,0,0,0,165.9,61.86Z"/><path class="cls-1" d="M159.6,63.86h-.1l-4.9-3.1.7-3.6,5.1-4.7,8.1,1.1,2.4,2.1v.1c.9,3.1-1.3,4.6-4.9,6.5h0a13.88,13.88,0,0,1-6.4,1.6Zm6.2-2.3c3.9-2.1,5.2-3.3,4.5-5.5l-2.1-1.8-7.6-1-4.7,4.3-.6,2.8,4.3,2.7h0a14.06,14.06,0,0,0,6.2-1.5Z"/><path class="cls-2" d="M167,54.56s3.7-.4,3.7,6.5-1.2,16.2-1.1,22a3.37,3.37,0,0,1-3.9-1.3,51.16,51.16,0,0,0-.4-9.4c-.7-5.3-.4-10.4,0-11.7a15.2,15.2,0,0,1-9.6-3.6c-4-3.7,6.1-6.4,6.1-6.4Z"/><path class="cls-1" d="M165.3,82l-.1-.1v-.1a50.06,50.06,0,0,0-.4-9.3,43.1,43.1,0,0,1-.1-11.4c-1.5-.1-6-.5-9.4-3.7a2.53,2.53,0,0,1-1-2.5c.7-2.7,7-4.5,7.2-4.5l.2-.1,5.3,3.9a3,3,0,0,1,2,.8c1.3,1.1,1.9,3.2,1.9,6.1,0,3.5-.3,7.6-.6,11.6a102.32,102.32,0,0,0-.5,10.4v.3l-.3.1a3.54,3.54,0,0,1-4.2-1.5Zm4.4-9.3c.3-3.9.6-8,.6-11.5,0-3.3-.9-4.8-1.6-5.5a2.66,2.66,0,0,0-1.6-.7H167l-5.3-3.9c-1.8.5-6.1,2.1-6.5,3.9a1.88,1.88,0,0,0,.8,1.8c3.8,3.6,9.3,3.5,9.3,3.5h.5l-.2.5c-.4,1.1-.7,6.2,0,11.5a60.56,60.56,0,0,1,.4,9.3,2.83,2.83,0,0,0,3.1,1.1C169.1,80,169.4,76.36,169.7,72.66Z"/><path class="cls-2" d="M161.5,56.06s4.7-.1,4.7,6.9-1.4,15.8-1.3,21.5c0,0-2.7,1.4-4.2-.8a51.16,51.16,0,0,0-.4-9.4,46.28,46.28,0,0,1-.1-11.2.46.46,0,0,0-.4-.5,15,15,0,0,1-9-3.6c-4-3.7,6.1-6.4,6.1-6.4Z"/><path class="cls-1" d="M160.4,83.86l-.1-.1v-.1a50.06,50.06,0,0,0-.4-9.3,47,47,0,0,1-.1-11.3l.4.1-.5-.2a15.07,15.07,0,0,1-9.3-3.7,2.53,2.53,0,0,1-1-2.5c.7-2.7,7-4.5,7.2-4.5l.2-.1,4.8,3.5a4.66,4.66,0,0,1,3,1.4c1.3,1.3,1.9,3.2,1.9,5.9,0,3.5-.4,7.5-.7,11.4s-.6,7.3-.6,10.1v.2l-.2.1a5.32,5.32,0,0,1-2,.5A3.15,3.15,0,0,1,160.4,83.86Zm4.7-9.6c.3-3.9.7-7.9.7-11.4,0-2.4-.6-4.2-1.7-5.3a3.84,3.84,0,0,0-2.6-1.2h-.1l-4.7-3.5c-1.8.5-6,2.1-6.5,3.9a1.88,1.88,0,0,0,.8,1.8,14.47,14.47,0,0,0,8.8,3.5.71.71,0,0,1,.6.3,1.45,1.45,0,0,1,.2.7,45.2,45.2,0,0,0,.1,11.1,60.56,60.56,0,0,1,.4,9.3,3,3,0,0,0,3.4.7C164.5,81.36,164.8,77.86,165.1,74.26Z"/><path class="cls-3" d="M155.1,42.66a39.89,39.89,0,0,1,10.3,7.4c4.4,4.6,5.3,5.8,5.3,5.8s-1.6-2.5-6.8-.6-5.5,4.2-5.6,6.2c-.1,1.1,1,1.7,1.2,1.9v.1c-.9-.1-5.9-.9-12.4-5.5-7.3-5.1-5.5-10.1-3.4-13.7C145.4,41.06,155.1,42.66,155.1,42.66Z"/><path class="cls-1" d="M159.4,63.76c-.9-.1-6-1-12.6-5.6-7.5-5.3-5.6-10.6-3.5-14.2,2-3.3,11.5-1.8,11.9-1.8h.1a39.48,39.48,0,0,1,10.4,7.5c3.4,3.6,4.8,5.1,5.2,5.6l.2.2-.6.4a.31.31,0,0,0-.1-.2c-.5-.5-2.2-1.8-6.2-.3-5.1,1.9-5.3,4.1-5.4,5.9a1.57,1.57,0,0,0,.9,1.4l.2.2a.44.44,0,0,1,.1.5l-.2.3Zm9.4-9.5c-.8-.9-2-2.2-3.7-3.9a42.44,42.44,0,0,0-10.1-7.3c-2.7-.4-9.6-.9-11,1.4-2.1,3.6-3.6,8.3,3.3,13.1a33.5,33.5,0,0,0,11.1,5.3,2,2,0,0,1-.5-1.4c.1-2.3.7-4.6,5.9-6.6a9.44,9.44,0,0,1,3.6-.8A5.9,5.9,0,0,1,168.8,54.26Z"/><path class="cls-1" d="M151.8,19.26s4-1,4.4,1.7a71.68,71.68,0,0,0,1.9,8.9c.9,3.2-2.8,4.5-2.8,4.5a27,27,0,0,0,1.7,9.5s-6.1,7-14.4,3.5l.3-1.8s1.5-8.3.6-12-3.3-5.1-1.9-8.6,6.6-5,6.6-5Z"/><path class="cls-1" d="M142.5,47.56l-.3-.1.4-2.1c0-.1,1.4-8.3.6-11.8a19.55,19.55,0,0,0-1.2-3.2c-.9-1.7-1.6-3.2-.7-5.7,1.4-3.7,6.6-5.2,6.9-5.3l3.5-.6a5.15,5.15,0,0,1,3.9.4,2.47,2.47,0,0,1,1,1.6,71.55,71.55,0,0,0,1.9,8.8c.8,2.6-1.4,4.3-2.8,4.9a27.35,27.35,0,0,0,1.7,9.1l.1.2-.2.2a14.34,14.34,0,0,1-10,4.6A12.52,12.52,0,0,1,142.5,47.56ZM155,34.26V34l.3-.1c.1-.1,3.4-1.2,2.5-4a60.9,60.9,0,0,1-1.9-8.9,1.64,1.64,0,0,0-.7-1.1c-1.1-.8-3.3-.3-3.3-.3l-3.5.6s-5.1,1.5-6.3,4.8c-.8,2.1-.2,3.4.6,5.1a12.62,12.62,0,0,1,1.3,3.3c.8,3.7-.6,11.8-.6,12.1l-.3,1.5c7.1,2.8,12.5-2.3,13.5-3.3A27.36,27.36,0,0,1,155,34.26Z"/><path class="cls-2" d="M153.1,19.66s1-.8,1,.6.1,3.2.1,6.1c0,2.6-3.5,4.4-6.1-.5s-4.4-3.4-4.4-3.4l1.6-3,4.2-2.3Z"/><path class="cls-1" d="M147.7,26c-1.3-2.5-2.4-3.2-3.1-3.4a1.12,1.12,0,0,0-.8.1l-1.4,1.2,2.5-4.8,4.5-2.5,3.6,2.6a1.06,1.06,0,0,1,.8-.1c.5.2.5.9.5,1.2v2c0,1.1.1,2.4.1,4.1a2.94,2.94,0,0,1-2.1,2.9,1.27,1.27,0,0,1-.6.1C150.3,29.26,148.8,28.06,147.7,26Zm5.6-6-.2.2-3.7-2.6-3.9,2.2L144.4,22h.4c1.2.2,2.4,1.5,3.6,3.8,1.1,2.1,2.5,3.2,3.9,2.8a2.08,2.08,0,0,0,1.5-2.1c0-1.7,0-3-.1-4.1v-2c0-.3-.1-.4,0-.4C153.5,19.76,153.4,19.86,153.3,20Z"/><path class="cls-3" d="M149.2,36.66a7.8,7.8,0,0,0,3.8-1.2l-.5-.6a5.21,5.21,0,0,1-6.3,0l-.5.6A6.11,6.11,0,0,0,149.2,36.66Z"/><path class="cls-1" d="M157,57.86l.2-.7c-.1,0-7.3-2.3-9-6.3l-.7.3C149.4,55.46,156.7,57.76,157,57.86Z"/><path class="cls-1" d="M147.1,49.66l.7-.2a2,2,0,0,1,.3-2l-.5-.6A2.53,2.53,0,0,0,147.1,49.66Z"/><path class="cls-1" d="M151.3,26.86a1.42,1.42,0,0,0,.6-.2c1.6-1,1-5.1.9-5.6l-.8.1c.3,1.6.4,4.3-.5,4.8-.1.1-.2.1-.4,0-1.2-.4-3-3.6-3.4-4.8l-.7.2c.4,1.1,2.2,4.7,3.9,5.3C151,26.86,151.1,26.86,151.3,26.86Z"/><path class="cls-2" d="M153.9,11.86s2.2,7.5-1.3,9.8c-.1,0-.1.1-.2.1-.6,0-3.1,0-5.2-3.1l-.2-.2c-.5-.1-2-.7-2.1-2.1a1.15,1.15,0,0,1,1-1.4.42.42,0,0,0,.3-.6l-1.2-2.6c-.1-.2,0-.3.1-.5l2.5-2.7c.1-.1.3-.2.4-.1l5,1.1a.32.32,0,0,1,.3.3Z"/><path class="cls-1" d="M146.8,18.86c-.5-.1-2.3-.8-2.4-2.4a1.48,1.48,0,0,1,1.3-1.8v-.1L144.5,12a1,1,0,0,1,.1-.9l2.5-2.7a1.14,1.14,0,0,1,.8-.3l5,1.1a1,1,0,0,1,.6.5l.7,2h0c.1.3,2.3,7.8-1.5,10.2a.6.6,0,0,1-.4.1H152C151.1,22.16,148.8,21.76,146.8,18.86Zm6-8.9-5.1-1.1-2.5,2.8,1.2,2.6a.85.85,0,0,1,0,.7.68.68,0,0,1-.6.4c-.5.1-.7.4-.6,1,.1,1.2,1.4,1.6,1.9,1.8.2.1.3.2.5.3,2.1,3,4.4,2.9,4.9,2.9,3.2-2.1,1.3-9.1,1.2-9.4Z"/><path class="cls-3" d="M148.2,6.06a7.15,7.15,0,0,1,7.5,7.9,12.88,12.88,0,0,1-.6,2.5c-.9,1.9-.6-2.4-4.7-3.6l-.3.7c0,.1-.1.1-.2.1l-1.9-1.2h-.1c-.3.2-2.4.9-1.1,2.8,0,.1,0,.2-.1.2-.5.1-1.9.1-1.5,1.1a5.31,5.31,0,0,0,1.3,1.9h0l1.2,1.2h0c.1.2.7,1.9-2.5,3.1a9.43,9.43,0,0,0-4.2,2.7c-.1.1-.2,0-.2-.1.1-1.1.6-3.8,1.7-5.1,1.4-1.6.8-3.9-.4-5.5s-1.3-5.4,3.1-7.9A8.4,8.4,0,0,1,148.2,6.06Z"/><path class="cls-1" d="M140.9,25.86a.55.55,0,0,1-.3-.5c.2-1.1.7-3.9,1.8-5.3,1.3-1.5.6-3.7-.4-5.1a5,5,0,0,1-.6-3.8c.3-1.3,1.2-3.1,3.9-4.6a7.54,7.54,0,0,1,2.9-.9h0A7.2,7.2,0,0,1,154,8a7.23,7.23,0,0,1,2.1,6.1,13.78,13.78,0,0,1-.6,2.6c-.2.3-.4.7-.7.7s-.6-.4-.9-.9a5.67,5.67,0,0,0-3.2-3.1l-.2.4c0,.1-.2.2-.3.3s-.3,0-.4-.1l-1.7-1.1a.1.1,0,0,0-.1.1c-.3.2-.9.5-1.1,1a1.25,1.25,0,0,0,.3,1.1.45.45,0,0,1,0,.5c-.1.2-.2.3-.4.3h-.3c-.3,0-.9.1-1,.3v.2a10.22,10.22,0,0,0,1.1,1.8l1.3,1.3.1.1v.1a1.8,1.8,0,0,1-.1,1.6,4.8,4.8,0,0,1-2.6,2.1,11.37,11.37,0,0,0-4.1,2.6.52.52,0,0,1-.4.2C141.1,25.86,141,25.86,140.9,25.86Zm5.4-7.1a7.93,7.93,0,0,1-1.4-2.1.93.93,0,0,1,0-.9,1.91,1.91,0,0,1,1.4-.7,2.4,2.4,0,0,1-.2-1.4,2.46,2.46,0,0,1,1.5-1.5c.1,0,.1-.1.2-.1a.63.63,0,0,1,.6,0l1.6,1.1.3-.8.3.1a6.47,6.47,0,0,1,4,3.5c.1.1.1.2.2.3v-.1a10.55,10.55,0,0,0,.6-2.4,7,7,0,0,0-1.9-5.5,6.5,6.5,0,0,0-5.2-2h0a6.07,6.07,0,0,0-2.6.8,6.29,6.29,0,0,0-3.5,4.1,3.91,3.91,0,0,0,.5,3.2c1.1,1.6,1.9,4.1.3,6a10.17,10.17,0,0,0-1.5,4.1,12.16,12.16,0,0,1,3.8-2.2,3.63,3.63,0,0,0,2.2-1.7,1.57,1.57,0,0,0,.1-.9Z"/><path class="cls-1" d="M151.9,18.36l.8-.2a1.33,1.33,0,0,0,.6-.5,1.7,1.7,0,0,0,.1-.7l-.5-1.5-.7.2.5,1.5v.1a.1.1,0,0,1-.1.1l-.8.2Z"/><path class="cls-1" d="M151.1,15.36c.2.6.1,1.2-.3,1.3s-.8-.3-1-.9-.1-1.2.3-1.3S150.9,14.76,151.1,15.36Z"/><path class="cls-1" d="M147.5,17.46h.2l-.1-.8a.65.65,0,0,1-.5-.3l-.6.5A1.11,1.11,0,0,0,147.5,17.46Z"/><path class="cls-1" d="M151.9,20.46h.2a1.68,1.68,0,0,0,1-.6l-.6-.5.3.2-.3-.2a1.41,1.41,0,0,1-.5.3.76.76,0,0,1-.5-.2l-.5.6A1.09,1.09,0,0,0,151.9,20.46Z"/><path class="cls-1" d="M155.2,15.16l.8-.1c0-.1-.8-7.4-7.2-7v.8C154.5,8.46,155.1,14.86,155.2,15.16Z"/><path class="cls-1" d="M142.9,16.56l.8-.1c-.8-4.4,1.3-5.9,1.3-6l-.4-.6C144.4,10,142,11.66,142.9,16.56Z"/><path class="cls-1" d="M141.4,25.46a6,6,0,0,1,3.1-3.6,2.3,2.3,0,0,0,1.4-2.3l-.8.1.4-.1-.4.1a1.56,1.56,0,0,1-1,1.5,6.77,6.77,0,0,0-3.5,4Z"/><path class="cls-2" d="M143.1,24.86c-1.3-.7-2.7,2.1-3.4,7.6s0,6.1-.1,11.7c0,3.2.1,8.2,0,9.6a6.3,6.3,0,0,1-1,2.7l-2.1,2.4c-.6.8-.5,1.7.4,2h0a2.37,2.37,0,0,0,2.8-.8l2-2.2.4.3a2.3,2.3,0,0,1-.4,1.4,5.91,5.91,0,0,0-.5.8h0a2.76,2.76,0,0,0,2.2-1.7h0a2.21,2.21,0,0,0,0-1.6l-.3-.8a9.08,9.08,0,0,1-.6-4c.2-2.4.5-6.5.8-10.3C143.7,36.16,145.9,26.46,143.1,24.86Z"/><path class="cls-1" d="M136.6,61.26c-.6-.2-.9-.6-.9-.9a1.9,1.9,0,0,1,.4-1.7l2.1-2.4a6.57,6.57,0,0,0,1-2.5v-9.5c0-2.2,0-3.6-.1-4.8a34.83,34.83,0,0,1,.2-7c.5-4.3,1.6-7.3,2.9-7.9a1.08,1.08,0,0,1,1.1,0h0c2.4,1.4,1.6,7.4.8,13.2-.2,1.6-.4,3.1-.5,4.4-.3,3.6-.6,7.6-.8,10.3a8.22,8.22,0,0,0,.6,3.8l.3.8a3.08,3.08,0,0,1,0,1.9,3.17,3.17,0,0,1-2.5,2l-.7.1.4-.6a6.13,6.13,0,0,0,.5-.8,1.69,1.69,0,0,0,.3-1l-1.7,1.9a2.84,2.84,0,0,1-2.2,1C137.3,61.46,137,61.36,136.6,61.26Zm5.8-3.2v.2a2.6,2.6,0,0,1-.4,1.5,2.94,2.94,0,0,0,1-1.2,1.48,1.48,0,0,0,0-1.3l-.3-.8a9.52,9.52,0,0,1-.6-4.1c.2-2.7.5-6.7.8-10.3.1-1.3.3-2.8.5-4.4.7-5,1.5-11.3-.4-12.4h0a.3.3,0,0,0-.4,0c-.8.4-1.9,2.8-2.5,7.3a32.91,32.91,0,0,0-.2,6.8c.1,1.3.1,2.7.1,4.9v9.6a6.47,6.47,0,0,1-1.1,2.9l-2.1,2.4a1.07,1.07,0,0,0-.3,1,.7.7,0,0,0,.5.4,2.08,2.08,0,0,0,2.4-.7l2.3-2.5Z"/><path class="cls-3" d="M161.9,91.56h.8a3.6,3.6,0,0,1,.3-1.9l-.6-.5A3.79,3.79,0,0,0,161.9,91.56Z"/><path class="cls-3" d="M167.5,94a3.1,3.1,0,0,0,1.2-.3l-.4-.6a1.78,1.78,0,0,1-1.6,0l-.3.7A5.16,5.16,0,0,0,167.5,94Z"/><path class="cls-3" d="M171.7,92.06a1.94,1.94,0,0,0,1.1-.3l-.4-.6a1.78,1.78,0,0,1-1.6,0l-.3.7A2.54,2.54,0,0,0,171.7,92.06Z"/><rect class="cls-3" x="153.59" y="33.86" width="1.4" height="0.8" transform="translate(-0.87 64.3) rotate(-23.48)"/><path class="cls-3" d="M148,34.66l.1-.8A3,3,0,0,1,146,32l-.7.2A3.77,3.77,0,0,0,148,34.66Z"/><path class="cls-3" d="M146.8,47.26l.8-.2-.4.1.4-.1a20.46,20.46,0,0,1,0-4.2l-.8-.1A23.61,23.61,0,0,0,146.8,47.26Z"/><rect class="cls-3" x="146.61" y="40.93" width="1.6" height="0.8" transform="translate(92.64 184.3) rotate(-84.7)"/><path class="cls-1" d="M141.1,37.46a14.74,14.74,0,0,1,.4-3.5l-.7-.3a13,13,0,0,0-.5,3.8Z"/><path class="cls-1" d="M169.1,50.76,156,58.36a1.28,1.28,0,0,1-1.2,0l-7.4-4.2c-.4-.2-.6-2.2,0-2.5l13.7-6.4,8.8,3.5C170.2,49,169.4,50.56,169.1,50.76Z"/><path class="cls-1" d="M155.3,58.86a2.35,2.35,0,0,1-.8-.2l-7.4-4.2c-.5-.3-.6-1.5-.5-2,0-.8.3-1.1.6-1.2l13.9-6.4,8.9,3.5a.68.68,0,0,1,.3.6,3.09,3.09,0,0,1-1.1,2.1l-13.1,7.6A1.08,1.08,0,0,1,155.3,58.86Zm5.8-13.2L147.5,52a.58.58,0,0,0-.1.4,2.39,2.39,0,0,0,.2,1.4l7.3,4.2a.75.75,0,0,0,.9,0l13.1-7.6a6.11,6.11,0,0,0,.7-1.4Z"/><path class="cls-2" d="M169.1,49.16,156,56.76a1.27,1.27,0,0,1-1.2,0l-7.4-4.2a.49.49,0,0,1,0-.9l13.7-7.9,8,4.6C169.4,48.56,169.4,49.06,169.1,49.16Z"/><path class="cls-1" d="M155.3,57.36a2.35,2.35,0,0,1-.8-.2L147.1,53a.89.89,0,0,1-.5-.8,1,1,0,0,1,.5-.8l13.9-8,8.1,4.7a.89.89,0,0,1,.5.8,1,1,0,0,1-.5.8L156,57.26A5.64,5.64,0,0,1,155.3,57.36Zm5.8-13.2L147.6,52a.1.1,0,0,0,0,.2l7.4,4.2a.75.75,0,0,0,.9,0l13.1-7.6a.1.1,0,0,0,0-.2Z"/><path class="cls-3" d="M169.9,48.76l-14.5,8.4V45.56a.71.71,0,0,1,.3-.6l13.9-8c.1-.1.3,0,.3.2v11.6Z"/><path class="cls-1" d="M155,57.76V45.46a1.05,1.05,0,0,1,.5-.9l13.9-8a.64.64,0,0,1,.6,0,.55.55,0,0,1,.3.5V49Zm14.5-20.4-13.6,7.9a.37.37,0,0,0-.1.3v11l13.8-7.9-.1-11.3Z"/><path class="cls-2" d="M163.3,48.26l-1.4.8c-.2.1-.4,0-.4-.3v-1.5a.84.84,0,0,1,.4-.7l1.4-.8c.2-.1.4,0,.4.3v1.5A1.27,1.27,0,0,1,163.3,48.26Z"/><path class="cls-1" d="M161.8,49.46a.37.37,0,0,1-.3-.1.6.6,0,0,1-.3-.6v-1.5a1.1,1.1,0,0,1,.6-1l1.4-.8a.64.64,0,0,1,.6,0,.6.6,0,0,1,.3.6v1.5a1.1,1.1,0,0,1-.6,1l-1.4.8A.37.37,0,0,1,161.8,49.46Zm1.5-3.3-1.2.7c-.1,0-.2.2-.2.4v1.3l1.2-.7c.1,0,.2-.2.2-.4Z"/><path class="cls-1" d="M216.9,102.46l-6.2-2.7c-.2-.1-.4-.4-.3-.6l22.3-66.9c.3-.7,1.2-1.1,2.7-1.1a6.68,6.68,0,0,1,3.1,1c1.2.8,1.7,1.7,1.5,2.4l-22.5,67.6C217.5,102.46,217.2,102.56,216.9,102.46Z"/><path class="cls-1" d="M216.6,103.06l-6.2-2.7a1.11,1.11,0,0,1-.6-1.4l22.3-67c.5-1,1.7-1.5,3.3-1.4a6.7,6.7,0,0,1,3.5,1.2c1.3.9,2,2,1.8,3.1l-22.6,67.7a1.06,1.06,0,0,1-.6.7.75.75,0,0,1-.5.1C216.9,103.16,216.8,103.06,216.6,103.06Zm21.6-70.4a4.68,4.68,0,0,0-2.8-.9,2.31,2.31,0,0,0-2.1.6l-22.2,66.8,5.9,2.6,22.5-67.4C239.5,33.86,239.1,33.26,238.2,32.66Z"/><path class="cls-3" d="M216.2,104.56l-6.2-2.7a.71.71,0,0,1-.3-.6l22.3-67c.3-.7,1.2-1.1,2.7-1.1a6.68,6.68,0,0,1,3.1,1c1.2.8,1.7,1.7,1.5,2.4l-22.4,67.7A.52.52,0,0,1,216.2,104.56Z"/><path class="cls-1" d="M215.9,105.16l-6.2-2.7a1.11,1.11,0,0,1-.6-1.4l22.3-67c.5-1,1.7-1.5,3.3-1.4a7.72,7.72,0,0,1,3.5,1.2c1.3.9,2,2,1.8,3.1l-22.6,67.7a1.06,1.06,0,0,1-.6.7.75.75,0,0,1-.5.1C216.2,105.26,216.1,105.26,215.9,105.16Zm21.6-70.4a4.68,4.68,0,0,0-2.8-.9,2.31,2.31,0,0,0-2.1.6l-22.2,66.8,5.9,2.6,22.5-67.3A2.81,2.81,0,0,0,237.5,34.76Z"/><path class="cls-2" d="M213.9,111.36l-6.2-2.7c-.2-.1-.4-.4-.3-.6l22.3-66.9c.3-.7,1.2-1.1,2.7-1.1a6.68,6.68,0,0,1,3.1,1c1.2.8,1.7,1.7,1.5,2.4l-22.5,67.6A.37.37,0,0,1,213.9,111.36Z"/><path class="cls-1" d="M213.7,112l-6.2-2.7a1.11,1.11,0,0,1-.6-1.4l22.3-67c.5-1,1.7-1.5,3.3-1.4a6.7,6.7,0,0,1,3.5,1.2c1.3.9,2,2,1.8,3.1l-22.6,67.7a1.06,1.06,0,0,1-.6.7.75.75,0,0,1-.5.1C214,112.06,213.8,112.06,213.7,112Zm21.5-70.3a4.68,4.68,0,0,0-2.8-.9,2.31,2.31,0,0,0-2.1.6l-22.2,66.8,5.9,2.6,22.5-67.4C236.6,42.86,236.1,42.16,235.2,41.66Z"/><path class="cls-3" d="M207,109.36l.1-.3c.2-.9,1.2-1.5,2.9-1.4a6.3,6.3,0,0,1,3,1c1.3.8,1.7,1.7,1.6,2.5h0c0,.1-.1.3-.1.4a6.37,6.37,0,0,1-3.7,3.9l-2.7-.7S206.2,111.56,207,109.36Z"/><path class="cls-1" d="M207.7,115.36l-.1-.2c-.1-.1-2-3.5-1.1-6l.1-.2c.2-1,1.2-2,3.5-1.9a6.5,6.5,0,0,1,3.3,1.1,3.4,3.4,0,0,1,1.9,3.1,1.42,1.42,0,0,1-.2.6,7.2,7.2,0,0,1-4,4.3l-.2.1Zm0-6.1-.1.3c-.5,1.4.4,3.7.9,4.7l2.2.5a6.4,6.4,0,0,0,3.2-3.5c0-.1.1-.1.1-.2.1-.6-.4-1.3-1.3-1.9a6.18,6.18,0,0,0-2.7-.9h-.3C208.6,108.26,207.9,108.66,207.7,109.26Z"/><path class="cls-1" d="M212.2,111a6.3,6.3,0,0,0-3-1,2.91,2.91,0,0,0-2.2.5,3,3,0,0,1,.2-1.3l.1-.3c.2-.9,1.2-1.5,2.9-1.4a6.3,6.3,0,0,1,3,1c1.3.8,1.7,1.7,1.6,2.5h0c0,.1-.1.3-.1.4a5.89,5.89,0,0,1-.8,1.6A4.2,4.2,0,0,0,212.2,111Z"/><path class="cls-2" d="M208,119.06l.2-2.7a8.6,8.6,0,0,0-.1-1.6c-.1-.4.1-.7.6-.8a2.49,2.49,0,0,1,2,.7c.3.4.3.8,0,1a2,2,0,0,0-.8,1l-1.2,2.6C208.5,119.46,208,119.36,208,119.06Z"/><path class="cls-1" d="M208.1,120a.9.9,0,0,1-.7-1l.2-2.7a5.72,5.72,0,0,0-.1-1.4,1.34,1.34,0,0,1,.1-.9,1.32,1.32,0,0,1,1-.6,2.84,2.84,0,0,1,2.6.9,1.5,1.5,0,0,1,.4,1.1,1.37,1.37,0,0,1-.5.8c-.2.1-.3.3-.5.7l-1.2,2.6a1.15,1.15,0,0,1-.9.6C208.3,120.06,208.2,120,208.1,120Zm2-4.9a1.69,1.69,0,0,0-1.4-.4h-.1a9,9,0,0,1,.2,1.8l-.1,1,.5-1.1a10.14,10.14,0,0,1,.9-1.3Z"/><path class="cls-1" d="M210.1,114.46c1.6-1,2.8-4.1,2.9-4.2l26.1-78-.9-.3-26.1,78c-.3.8-1.4,3-2.5,3.7Z"/><rect class="cls-3" x="237.21" y="32.82" width="2" height="1" transform="translate(132.41 249.33) rotate(-71.87)"/><rect class="cls-3" x="211.65" y="109.12" width="2" height="1" transform="translate(36.53 271.54) rotate(-69.87)"/><path class="cls-1" d="M231.1,75.46,244,36.56a7.23,7.23,0,0,0-1.4-7.1,12,12,0,0,0-5.3-3.1l-.3.9a11.11,11.11,0,0,1,4.9,2.8,6.09,6.09,0,0,1,1.2,6.1l-12.9,38.9Z"/><rect class="cls-1" x="218.39" y="86.05" width="16.9" height="1" transform="translate(73.12 274.48) rotate(-71.6)"/><path class="cls-1" d="M244.8,28.26l.8-.5a12,12,0,0,0-9.9-5v1A10.57,10.57,0,0,1,244.8,28.26Z"/><path class="cls-1" d="M241.2,21.06l.3-.9c-.2,0-3.9-1-6.9,0l.3.9A11.12,11.12,0,0,1,241.2,21.06Z"/></g></g></svg>